<svg width="205" height="183" viewBox="0 0 205 183" fill="none" xmlns="http://www.w3.org/2000/svg">
<path d="M128.147 155.566V169.949H123.207L133.854 182.351L143.842 170.204H138.794V155.566H128.147Z" fill="#EBEBEB" fill-opacity="0.12"/>
<path d="M146.984 47.2456V52.3069H145.246L148.994 56.675L152.513 52.398H150.732V47.2456H146.984Z" fill="#EBEBEB" fill-opacity="0.22"/>
<path d="M191.926 94.2018V104.597H188.355L196.051 113.563L203.271 104.779H199.622V94.2018H191.926Z" fill="#EBEBEB" fill-opacity="0.17"/>
<path d="M27.3187 136.209V146.605H23.748L31.4441 155.566L38.6677 146.787H35.0147V136.209H27.3187Z" fill="#EBEBEB" fill-opacity="0.15"/>
<path d="M91.2353 153.2V160.957H88.5703L94.3163 167.648L99.7027 161.096H96.9813V153.2H91.2353Z" fill="#EBEBEB" fill-opacity="0.17"/>
<path d="M73.8803 26.3156C74.2443 23.6766 70.5176 21.5056 67.7183 21.2803C66.3879 21.1719 65.0013 21.3799 63.7359 20.9379C60.9973 19.9846 59.9009 16.4443 57.2359 15.3046C55.2382 14.4596 52.9416 15.2093 51.0002 16.1713C49.0589 17.1333 47.1522 18.3769 44.9856 18.5156C43.1049 18.6326 41.0596 17.9349 39.4129 18.8536C38.1866 19.5426 37.5409 20.9553 36.4099 21.7873C35.2789 22.6193 33.8619 22.7796 32.5099 22.8533C31.1579 22.9269 29.7149 22.9399 28.4625 23.5119C27.2102 24.0839 26.1789 25.4099 26.4389 26.7576L73.8803 26.3156Z" fill="#F5F5F5" fill-opacity="0.21"/>
<path d="M203.981 75.551C204.297 73.2544 201.056 71.365 198.62 71.17C197.459 71.0747 196.254 71.2523 195.154 70.871C192.775 70.039 191.821 66.971 189.494 65.983C187.761 65.2463 185.755 65.9007 184.073 66.75C182.392 67.5993 180.719 68.6653 178.839 68.7867C177.201 68.8907 175.424 68.284 173.99 69.0813C172.924 69.6793 172.365 70.91 171.39 71.6337C170.415 72.3573 169.171 72.5003 167.979 72.561C166.788 72.6217 165.548 72.639 164.461 73.133C163.373 73.627 162.472 74.784 162.697 75.9584L203.981 75.551Z" fill="#F5F5F5" fill-opacity="0.17"/>
<path d="M97.9008 5.64557C98.0568 4.52324 96.4708 3.60023 95.2792 3.5049C94.7105 3.52609 94.1413 3.4766 93.5848 3.35757C92.4192 2.95023 91.9555 1.44656 90.8158 0.965562C89.9491 0.610228 88.9871 0.926561 88.1638 1.34256C87.3405 1.75856 86.5258 2.27856 85.6071 2.33923C84.8055 2.39123 83.9345 2.09223 83.2325 2.48223C82.7125 2.7769 82.4395 3.3749 81.9585 3.73024C81.4548 4.03024 80.8761 4.18056 80.2901 4.16357C79.6996 4.14489 79.111 4.24054 78.5568 4.44524C78.2827 4.55022 78.05 4.74129 77.8937 4.98976C77.7375 5.23824 77.666 5.5307 77.6901 5.82324L97.9008 5.64557Z" fill="#E0E0E0" fill-opacity="0.22"/>
<path d="M201.895 171.912C202.181 169.845 199.264 168.15 197.076 167.973C196.032 167.886 194.948 168.046 193.96 167.704C191.82 166.954 190.962 164.19 188.873 163.306C187.309 162.647 185.51 163.236 183.994 163.999C182.477 164.762 180.982 165.732 179.288 165.828C177.819 165.923 176.22 165.394 174.928 166.096C173.971 166.629 173.468 167.739 172.584 168.389C171.7 169.039 170.586 169.164 169.512 169.221C168.437 169.277 167.345 169.29 166.348 169.741C165.352 170.191 164.563 171.223 164.767 172.276L201.895 171.912Z" fill="#E0E0E0" fill-opacity="0.22"/>
<path d="M93.0695 46.4786L89.7285 40.5896C91.7938 37.2369 92.5304 33.233 91.7934 29.3648C91.0565 25.4966 88.8994 22.044 85.746 19.6855C82.5927 17.327 78.6713 16.2333 74.7525 16.6193C70.8337 17.0054 67.201 18.8432 64.5685 21.7716C61.936 24.7 60.4939 28.5072 60.5259 32.4448C60.5579 36.3824 62.0615 40.1657 64.7412 43.0509C67.421 45.9362 71.083 47.7148 75.0075 48.0372C78.9321 48.3595 82.8352 47.2023 85.9499 44.7929L93.0695 46.4786Z" fill="#BE0002"/>
<path d="M93.0697 46.4786L85.9284 44.8536H85.846L85.898 44.7843L85.9804 44.8623C83.7843 46.5757 81.1739 47.6775 78.4143 48.056C77.5863 48.1728 76.7495 48.2148 75.914 48.1816C75.4807 48.1816 75.0473 48.147 74.614 48.1123L73.2837 47.9086C71.1651 47.5039 69.1519 46.6696 67.368 45.4573C65.5841 44.2449 64.0673 42.6801 62.9111 40.8593C61.7549 39.0386 60.9837 37.0003 60.6451 34.8702C60.3065 32.74 60.4077 30.5631 60.9423 28.4736C61.5364 26.0682 62.6967 23.8396 64.3267 21.9736C65.9739 20.0655 68.0541 18.5796 70.3933 17.6402C72.6393 16.7519 75.0563 16.3802 77.4653 16.5525C79.7467 16.7071 81.966 17.3625 83.9654 18.4722C87.5511 20.4684 90.2321 23.7669 91.4534 27.6849C91.9391 29.3508 92.1699 31.0806 92.138 32.8156C92.051 35.5775 91.238 38.2678 89.7807 40.6156V40.5593L93.074 46.4786L89.6854 40.6156V40.5853V40.5593C91.1186 38.2154 91.9107 35.536 91.982 32.7896C92.0054 31.0727 91.7702 29.3621 91.2844 27.7152C90.0682 23.8437 87.4128 20.5865 83.8657 18.6152C81.8952 17.5239 79.7085 16.8803 77.461 16.7302C75.0853 16.5611 72.7021 16.9299 70.4887 17.8092C68.1734 18.7418 66.1164 20.2177 64.4913 22.1122C62.8869 23.949 61.7431 26.1415 61.1546 28.5082C60.5815 30.7773 60.5178 33.1451 60.9683 35.4416C61.4022 37.6122 62.2961 39.6646 63.59 41.4606C65.9228 44.702 69.4004 46.9357 73.3183 47.7093L74.6183 47.913C75.0517 47.952 75.485 47.965 75.9183 47.9866C76.7448 48.0219 77.5728 47.9842 78.3927 47.874C81.1298 47.5114 83.723 46.4337 85.911 44.7496L86.2577 44.4809L85.989 44.8276L85.9544 44.7409L93.0697 46.4786Z" fill="#263238"/>
<path d="M80.9145 24.1403H70.7052C70.2122 24.1403 69.8125 24.5399 69.8125 25.0329V40.1216C69.8125 40.6146 70.2122 41.0143 70.7052 41.0143H80.9145C81.4075 41.0143 81.8072 40.6146 81.8072 40.1216V25.0329C81.8072 24.5399 81.4075 24.1403 80.9145 24.1403Z" fill="#263238"/>
<path d="M81.1919 25.1542H70.3672V37.7642H81.1919V25.1542Z" fill="#FAFAFA" fill-opacity="0.71"/>
<path d="M75.8084 40.2906C76.311 40.2906 76.7184 39.8832 76.7184 39.3806C76.7184 38.878 76.311 38.4706 75.8084 38.4706C75.3059 38.4706 74.8984 38.878 74.8984 39.3806C74.8984 39.8832 75.3059 40.2906 75.8084 40.2906Z" fill="#455A64"/>
<path d="M77.3262 28.9979L81.3215 33.7126L85.0612 28.9979H83.1198V22.5109L79.2372 22.4633L79.2848 29.0066L77.3262 28.9979Z" fill="#717171"/>
<path d="M77.5737 30.7789C77.0624 31.4747 76.4926 32.1256 75.8707 32.7246C75.3032 33.3731 74.6813 33.9718 74.0117 34.5143C74.5191 33.8166 75.0876 33.1655 75.7104 32.5686C76.2774 31.9182 76.901 31.3193 77.5737 30.7789Z" fill="#263238"/>
<path d="M76.7847 30.2026C76.5264 30.6094 76.2079 30.9746 75.8401 31.2859C75.5261 31.6459 75.1576 31.9544 74.748 32.2002C75.0047 31.7922 75.3234 31.4267 75.6927 31.1169C76.0059 30.7561 76.3745 30.4475 76.7847 30.2026Z" fill="#263238"/>
<path opacity="0.3" d="M175.324 28.7034V36.0311H172.807L178.236 42.3534L183.328 36.1611H180.754V28.7034H175.324Z" fill="#605E5E"/>
<path d="M193.021 12.3536C192.346 9.73033 190.954 7.34697 189 5.47098C187.046 3.59499 184.608 2.30062 181.96 1.73312C179.311 1.16562 176.557 1.34747 174.006 2.25824C171.455 3.16901 169.209 4.77267 167.519 6.88923C167.053 6.83178 166.584 6.80283 166.115 6.80257C164.476 6.72664 162.839 6.98388 161.302 7.55873C159.765 8.13359 158.361 9.01411 157.175 10.1471C155.988 11.28 155.043 12.6419 154.398 14.1503C153.753 15.6587 153.42 17.2823 153.42 18.9229C153.42 20.5636 153.753 22.1872 154.398 23.6956C155.043 25.204 155.988 26.5658 157.175 27.6988C158.361 28.8317 159.765 29.7123 161.302 30.2871C162.839 30.862 164.476 31.1192 166.115 31.0433H192.509C194.948 31.0482 197.293 30.0999 199.043 28.4007C200.792 26.7015 201.809 24.3859 201.876 21.9477C201.942 19.5095 201.054 17.1418 199.4 15.3494C197.745 13.5571 195.456 12.4821 193.021 12.3536Z" fill="#2B2B2B"/>
<path d="M195.811 27.776C195.79 27.7413 196.314 27.4163 197.007 26.7186C197.917 25.8154 198.615 24.7215 199.051 23.5158C199.488 22.3101 199.651 21.0226 199.529 19.7463C199.438 18.7669 199.248 18.1776 199.287 18.1689C199.358 18.295 199.41 18.4308 199.443 18.5719C199.555 18.9507 199.637 19.3375 199.69 19.7289C199.859 21.0319 199.714 22.3566 199.267 23.5922C198.82 24.8278 198.084 25.9384 197.12 26.8313C196.832 27.1027 196.522 27.3491 196.193 27.568C196.078 27.6577 195.949 27.7279 195.811 27.776Z" fill="#263238"/>
<path d="M167.856 10.434C167.856 10.473 167.184 10.304 166.101 10.2823C164.688 10.2445 163.283 10.5183 161.987 11.0845C160.692 11.6507 159.537 12.4953 158.604 13.5583C157.885 14.373 157.564 14.9753 157.525 14.9493C157.576 14.7957 157.647 14.6498 157.738 14.516C157.958 14.1406 158.207 13.7827 158.483 13.4457C159.402 12.3302 160.571 11.4472 161.896 10.8682C163.22 10.2893 164.662 10.0306 166.105 10.1133C166.543 10.1363 166.977 10.1942 167.405 10.2867C167.561 10.3162 167.713 10.3657 167.856 10.434Z" fill="#263238"/>
<path d="M176.043 4.44527C176.043 4.48861 175.562 4.51894 174.817 4.71394C173.845 4.98074 172.928 5.42116 172.113 6.01394C171.302 6.60496 170.606 7.33926 170.059 8.18062C169.626 8.82628 169.461 9.27695 169.422 9.26395C169.436 9.14988 169.468 9.03877 169.517 8.93462C169.626 8.64278 169.761 8.36141 169.92 8.09395C170.152 7.6865 170.422 7.30199 170.726 6.94561C171.105 6.52232 171.526 6.13898 171.983 5.80161C172.443 5.47094 172.937 5.18919 173.456 4.96094C173.882 4.77578 174.325 4.63071 174.778 4.52761C175.082 4.46117 175.39 4.42058 175.701 4.40627C175.816 4.40137 175.932 4.41453 176.043 4.44527Z" fill="#263238"/>
<path d="M187.391 30.9393C187.391 31.0043 183.829 31.052 179.435 31.052C175.041 31.052 171.475 31.0043 171.475 30.9393C171.475 30.8743 175.037 30.8267 179.435 30.8267C183.833 30.8267 187.391 30.8787 187.391 30.9393Z" fill="#263238"/>
<path d="M188.285 52.7751C188.224 52.7751 188.172 49.8544 188.172 46.275C188.172 42.6957 188.224 39.775 188.285 39.775C188.345 39.775 188.402 42.6914 188.402 46.275C188.402 49.8587 188.35 52.7751 188.285 52.7751Z" fill="#263238"/>
<path d="M190.833 58.469C190.773 58.469 190.721 54.712 190.721 50.0753C190.721 45.4386 190.773 41.6816 190.833 41.6816C190.894 41.6816 190.95 45.4386 190.95 50.0753C190.95 54.712 190.898 58.469 190.833 58.469Z" fill="#263238"/>
<path d="M27.9118 65.918V70.4073H26.3691L29.6928 74.2813L32.8128 70.4896H31.2355V65.918H27.9118Z" fill="#717171" fill-opacity="0.36"/>
<path d="M38.7537 55.9123C38.3401 54.3052 37.4869 52.8451 36.2899 51.6957C35.0928 50.5464 33.5991 49.7534 31.9765 49.4055C30.3539 49.0577 28.6664 49.1688 27.1034 49.7265C25.5404 50.2841 24.1637 51.2662 23.1277 52.5626C22.84 52.5296 22.5506 52.5123 22.261 52.5106C21.2708 52.4867 20.2859 52.6611 19.3641 53.0235C18.4423 53.3859 17.6023 53.929 16.8935 54.6208C16.1848 55.3127 15.6215 56.1393 15.237 57.0521C14.8524 57.9649 14.6543 58.9453 14.6543 59.9358C14.6543 60.9263 14.8524 61.9067 15.237 62.8195C15.6215 63.7323 16.1848 64.5589 16.8935 65.2508C17.6023 65.9426 18.4423 66.4857 19.3641 66.8481C20.2859 67.2105 21.2708 67.3849 22.261 67.361H38.4374C39.9296 67.3613 41.363 66.7795 42.4327 65.7391C43.5024 64.6988 44.124 63.2821 44.1652 61.7905C44.2064 60.2989 43.664 58.8501 42.6534 57.7523C41.6427 56.6545 40.2436 55.9943 38.7537 55.9123Z" fill="#1F1F1F"/>
<path d="M40.4609 65.3502C40.4609 65.3199 40.7556 65.1119 41.1716 64.6829C41.7161 64.1255 42.1369 63.4596 42.4066 62.7286C42.6651 61.9936 42.7684 61.2131 42.7099 60.4362C42.6623 59.8382 42.5539 59.4742 42.5886 59.4655C42.7474 59.7601 42.842 60.0851 42.8659 60.4189C42.9791 61.2221 42.8941 62.0407 42.6184 62.8036C42.3428 63.5664 41.8847 64.2503 41.2843 64.7956C41.0519 65.0363 40.7713 65.2253 40.4609 65.3502Z" fill="#263238"/>
<path d="M23.3345 54.7249C23.3345 54.7639 22.9012 54.6729 22.2555 54.6642C21.3952 54.6482 20.5416 54.8184 19.7532 55.1632C18.9648 55.508 18.2604 56.0193 17.6881 56.6619C17.2548 57.1515 17.0381 57.5285 17.0078 57.4939C17.1296 57.1476 17.3197 56.8293 17.5668 56.5579C18.1282 55.8645 18.8478 55.316 19.6653 54.9586C20.4827 54.6012 21.3739 54.4452 22.2642 54.5039C22.632 54.5065 22.9957 54.5816 23.3345 54.7249Z" fill="#263238"/>
<path d="M28.3487 51.059C28.1043 51.1386 27.8555 51.2037 27.6034 51.254C27.0165 51.4204 26.4636 51.6889 25.9697 52.047C25.4781 52.4049 25.0516 52.8446 24.7087 53.347C24.5791 53.5731 24.4343 53.7903 24.2754 53.997C24.313 53.7348 24.4092 53.4844 24.5571 53.2646C24.8701 52.7092 25.3004 52.2286 25.8181 51.8563C26.3339 51.4788 26.9251 51.2171 27.5514 51.0893C27.8112 51.0173 28.0842 51.0069 28.3487 51.059Z" fill="#263238"/>
<path d="M35.3051 67.2916C35.3051 67.3523 33.1385 67.4043 30.4301 67.4043C27.7218 67.4043 25.5508 67.3523 25.5508 67.2916C25.5508 67.231 27.7348 67.179 30.4215 67.179C33.1081 67.179 35.3051 67.2266 35.3051 67.2916Z" fill="#263238"/>
<path d="M35.8508 80.6643C35.7392 79.3371 35.7016 78.0047 35.7382 76.6733C35.7015 75.3405 35.7391 74.0066 35.8508 72.678C35.9651 74.0065 36.0028 75.3405 35.9635 76.6733C36.0027 78.0047 35.965 79.3373 35.8508 80.6643Z" fill="#263238"/>
<path d="M37.4095 84.157C37.3489 84.157 37.2969 81.8516 37.2969 79.0133C37.2969 76.175 37.3489 73.8696 37.4095 73.8696C37.4702 73.8696 37.5222 76.175 37.5222 79.0133C37.5222 81.8516 37.4745 84.157 37.4095 84.157Z" fill="#263238"/>
<path d="M106.375 141.587V162.591H99.1602L114.713 180.704L129.303 162.959H121.928V141.587H106.375Z" fill="#717171"/>
<path opacity="0.3" d="M106.375 141.587V162.591H99.1602L114.713 180.704L129.303 162.959H121.928V141.587H106.375Z" fill="black"/>
<path d="M157.092 94.7305C155.157 87.214 151.166 80.3854 145.567 75.0103C139.968 69.6353 132.982 65.9265 125.393 64.2999C117.803 62.6732 109.911 63.1931 102.601 65.8012C95.2906 68.4092 88.8516 73.0024 84.0059 79.0654C82.6713 78.9048 81.3287 78.8209 79.9845 78.8141C70.7708 78.8141 61.9345 82.4742 55.4194 88.9893C48.9043 95.5044 45.2441 104.341 45.2441 113.555C45.2441 122.768 48.9043 131.605 55.4194 138.12C61.9345 144.635 70.7708 148.295 79.9845 148.295H155.627C162.612 148.3 169.323 145.578 174.331 140.709C179.338 135.84 182.248 129.208 182.438 122.226C182.629 115.244 180.087 108.463 175.353 103.327C170.619 98.1916 164.067 95.1071 157.092 94.7305Z" fill="#717171"/>
<path d="M88.5506 101.053C88.5273 100.978 88.5156 100.901 88.5159 100.823C88.5159 100.65 88.4899 100.433 88.4726 100.169C88.4726 100.021 88.4726 99.8654 88.4466 99.6921C88.4206 99.5188 88.4033 99.3324 88.3816 99.1331C88.3253 98.7301 88.2906 98.2664 88.1779 97.7724C88.1303 97.5211 88.0783 97.2568 88.0219 96.9838C87.9656 96.7108 87.8789 96.4378 87.8053 96.1474C87.6709 95.5624 87.4456 94.9601 87.2289 94.3231C86.7083 92.9647 86.0597 91.6588 85.2919 90.4231C84.4991 89.1951 83.5923 88.0445 82.5836 86.9867C82.1026 86.5187 81.6519 86.0594 81.1839 85.6867C80.9543 85.4961 80.7506 85.3011 80.5209 85.1321L79.8753 84.6554C79.4766 84.3391 79.0736 84.1094 78.7356 83.8884L78.2589 83.5851L77.8256 83.3597L77.2536 83.0347C77.1826 83.003 77.1168 82.9606 77.0586 82.9091C77.1319 82.9313 77.203 82.9603 77.2709 82.9957L77.8689 83.2817L78.3023 83.4941C78.4539 83.5764 78.6143 83.6761 78.7919 83.7801C79.1949 84.0075 79.5855 84.2563 79.9619 84.5254L80.6163 84.9934C80.8459 85.1581 81.0496 85.3574 81.2966 85.5437C81.7942 85.9518 82.2701 86.3857 82.7223 86.8437C84.8069 88.9514 86.4082 91.4872 87.4153 94.2754C87.6353 94.8804 87.8234 95.4966 87.9786 96.1214C88.0479 96.4161 88.1346 96.6934 88.1866 96.9881C88.2386 97.2828 88.2819 97.5298 88.3253 97.7811C88.4068 98.2371 88.4646 98.6971 88.4986 99.1591C88.4986 99.3628 88.5376 99.5491 88.5463 99.7268C88.5549 99.9044 88.5463 100.056 88.5463 100.203V100.862C88.5516 100.926 88.5531 100.989 88.5506 101.053Z" fill="#263238"/>
<path d="M74.3369 94.3362C74.3066 94.3665 73.8516 93.9028 73.0369 93.3005C70.8776 91.6967 68.312 90.7299 65.6312 90.5098C64.6042 90.4232 63.9629 90.4622 63.9629 90.4232C64.1036 90.3819 64.2496 90.3615 64.3962 90.3625C64.806 90.3347 65.2171 90.3347 65.6269 90.3625C68.3594 90.4915 70.9822 91.4769 73.1236 93.1792C73.4469 93.4323 73.7524 93.7074 74.0379 94.0025C74.1501 94.1018 74.2505 94.2138 74.3369 94.3362Z" fill="#263238"/>
<path d="M90.2511 123.989C90.0235 124.012 89.7941 124.012 89.5664 123.989C89.1331 123.989 88.4831 123.989 87.6944 123.95C86.1171 123.894 83.9374 123.764 81.5367 123.517C79.1361 123.27 76.9737 122.984 75.4137 122.728C74.6337 122.603 74.0054 122.494 73.5721 122.408C73.3441 122.375 73.1194 122.323 72.9004 122.252C73.13 122.258 73.3588 122.282 73.5851 122.321L75.4397 122.572C76.9997 122.785 79.1621 123.058 81.5584 123.292C83.9547 123.526 86.1301 123.682 87.7031 123.777L89.5664 123.89C89.7967 123.907 90.0255 123.94 90.2511 123.989Z" fill="#263238"/>
<path d="M155.957 94.5181C155.877 94.5361 155.796 94.5463 155.714 94.5485L155.017 94.5962C154.718 94.5962 154.345 94.6308 153.92 94.6871C153.496 94.7435 153.002 94.7695 152.469 94.8648L151.628 94.9992C151.338 95.0468 151.039 95.1205 150.727 95.1812C150.103 95.2982 149.448 95.4845 148.755 95.6665C145.765 96.5169 142.932 97.8409 140.361 99.5882C139.776 99.9998 139.213 100.381 138.723 100.788C138.472 100.988 138.225 101.17 138.004 101.361L137.363 101.92C136.929 102.266 136.604 102.622 136.292 102.916C135.98 103.211 135.725 103.48 135.517 103.705L135.036 104.208C134.981 104.269 134.92 104.324 134.854 104.372C134.895 104.302 134.945 104.237 135.001 104.177C135.118 104.034 135.27 103.861 135.434 103.644C135.599 103.428 135.868 103.133 136.188 102.829C136.509 102.526 136.825 102.158 137.237 101.802L137.874 101.23C138.095 101.031 138.342 100.845 138.589 100.641C139.079 100.208 139.642 99.8352 140.227 99.4148C142.817 97.6324 145.688 96.2979 148.72 95.4672C149.418 95.2895 150.081 95.1075 150.709 94.9992C151.026 94.9385 151.329 94.8692 151.624 94.8258L152.49 94.7088C153.028 94.6222 153.522 94.6005 153.951 94.5615C154.319 94.5253 154.689 94.5079 155.06 94.5095H155.758C155.824 94.5054 155.891 94.5083 155.957 94.5181Z" fill="#263238"/>
<path d="M153.816 148.529C153.816 148.594 137.068 148.642 116.415 148.642C95.7625 148.642 79.0098 148.594 79.0098 148.529C79.0098 148.464 95.7538 148.416 116.415 148.416C137.077 148.416 153.816 148.468 153.816 148.529Z" fill="#263238"/>
<path d="M63.4877 163.561C63.427 163.561 63.375 160.428 63.375 156.567C63.375 152.706 63.427 149.569 63.4877 149.569C63.5483 149.569 63.6003 152.698 63.6003 156.567C63.6003 160.437 63.5483 163.561 63.4877 163.561Z" fill="#263238"/>
<path d="M66.3295 176.466C66.2688 176.466 66.2168 172.059 66.2168 166.625C66.2168 161.191 66.2688 156.784 66.3295 156.784C66.3901 156.784 66.4421 161.187 66.4421 166.625C66.4421 172.063 66.3858 176.466 66.3295 176.466Z" fill="#263238"/>
<g opacity="0.3">
<path opacity="0.3" d="M166.686 108.649C165.819 103.705 159.263 98.6825 153.612 99.8135C148.689 100.793 143.39 101.937 138.523 103.168C136.513 103.675 134.433 101.235 132.751 100.026C131.885 99.3932 131.347 98.3792 130.797 97.4258C127.664 92.1002 122.507 88.1048 116.748 85.8732C110.989 83.6415 104.654 83.1085 98.5137 83.7801C93.747 84.3045 88.547 85.9468 86.3153 90.1935C85.4226 91.9052 85.0673 93.9592 83.685 95.3025C81.839 97.0878 78.9183 96.9448 76.5133 97.8505C71.7033 99.6619 69.2679 106.539 69.8746 111.639C70.4813 116.74 75.0183 123.313 84.556 124.362C84.556 124.362 119.106 124.665 136.166 125.493C142.081 125.779 143.866 124.964 149.781 124.808C160.22 124.557 168.246 117.719 166.686 108.649Z" fill="black"/>
</g>
<path d="M103.219 133.501C103.8 133.354 104.45 132.756 104.953 132.435C106.183 131.643 107.401 130.83 108.606 129.995C104.272 128.739 100.611 127.746 96.2859 126.529C96.1374 128.262 96.2988 130.008 96.7626 131.685C97.1612 133.024 97.9239 134.45 99.2759 134.805C100.502 135.126 101.75 134.45 102.834 133.783L103.133 133.596" fill="#E0E0E0"/>
<path d="M103.962 131.109C103.897 131.109 103.923 130.541 103.771 129.878C103.619 129.215 103.338 128.721 103.416 128.687C103.699 129.014 103.897 129.407 103.992 129.829C104.087 130.252 104.077 130.691 103.962 131.109Z" fill="#263238"/>
<path d="M104.893 130.879C104.849 130.558 104.825 130.233 104.824 129.909C104.757 129.591 104.712 129.27 104.689 128.947C104.889 129.223 105.013 129.547 105.049 129.886C105.085 130.225 105.031 130.567 104.893 130.879Z" fill="#263238"/>
<path d="M99.1817 127.335C99.2207 127.335 99.095 127.768 99.0864 128.509C99.0725 129.45 99.3072 130.378 99.7667 131.2C100.206 132.033 100.807 132.769 101.535 133.367C101.86 133.583 102.204 133.77 102.562 133.926C102.452 133.932 102.343 133.914 102.241 133.874C101.958 133.789 101.689 133.662 101.444 133.497C100.662 132.917 100.021 132.169 99.5674 131.308C99.0888 130.453 98.8676 129.478 98.9304 128.5C98.9443 128.207 98.9894 127.917 99.0647 127.634C99.0841 127.527 99.1238 127.426 99.1817 127.335Z" fill="#455A64"/>
<path d="M102.561 128.335C102.941 129.136 103.179 129.997 103.263 130.879C103.416 131.748 103.416 132.636 103.263 133.505C103.194 133.505 103.242 132.331 103.047 130.905C102.852 129.479 102.492 128.357 102.561 128.335Z" fill="#455A64"/>
<path d="M101.582 132.946C101.325 132.799 101.092 132.612 100.893 132.392C100.365 131.905 99.9252 131.33 99.5935 130.693C99.2623 130.047 99.1254 129.318 99.1992 128.596C99.2118 128.294 99.3111 128.002 99.4852 127.755C99.5198 127.755 99.3898 128.08 99.3595 128.622C99.3342 129.309 99.4833 129.992 99.7928 130.606C100.116 131.221 100.522 131.79 100.997 132.296C101.213 132.493 101.409 132.711 101.582 132.946Z" fill="#717171"/>
<path d="M107.639 130.598C107.172 130.976 106.66 131.295 106.114 131.547C105.603 131.863 105.056 132.116 104.484 132.301C104.949 131.918 105.462 131.597 106.01 131.347C106.52 131.031 107.067 130.779 107.639 130.598Z" fill="#717171"/>
<path d="M100.741 133.007C100.382 133.398 99.9287 133.692 99.4246 133.861C98.9205 134.029 98.3819 134.066 97.8594 133.969C97.8594 133.904 98.557 133.917 99.3544 133.644C100.152 133.371 100.702 132.955 100.741 133.007Z" fill="#455A64"/>
<path d="M99.2724 130.788C99.2724 130.853 98.6874 130.936 98.0374 131.222C97.3874 131.508 96.9324 131.906 96.8848 131.859C97.1363 131.471 97.5075 131.176 97.9421 131.018C98.3476 130.795 98.8158 130.714 99.2724 130.788Z" fill="#455A64"/>
<path d="M98.9858 128.817C98.5189 128.656 98.0428 128.523 97.5601 128.418C97.0665 128.392 96.5718 128.392 96.0781 128.418C96.5418 128.172 97.077 128.097 97.5905 128.206C98.1142 128.234 98.61 128.451 98.9858 128.817Z" fill="#455A64"/>
<path d="M132.162 122.551C132.188 122.59 115.908 126.516 115.908 126.516L113.516 120.913L114.612 119.218C114.612 119.218 121.493 117.663 127.092 114.495L132.162 122.551Z" fill="#FFBE9D"/>
<path d="M93.9594 106.586C93.9594 106.586 93.2141 105.499 90.0594 103.952C87.4377 102.652 80.708 101.594 77.9824 106.859C75.2567 112.125 77.3497 120.202 81.8824 121.927C86.415 123.651 93.9594 126.013 97.0491 127.01C100.139 128.006 110.3 130.55 110.3 130.55L114.478 128.102L114.972 120.302C114.972 120.302 109.213 114.387 104.312 112.753C99.4107 111.119 93.9594 106.586 93.9594 106.586Z" fill="#263238"/>
<path d="M84.5566 102.912C84.6 102.847 89.176 102.977 92.517 104.238C93.7737 104.71 95.0043 105.217 95.0043 105.217L96.8503 99.9565L110.687 95.3458H126.005L130.988 105.217V105.716C130.988 105.716 136.973 105.815 139.564 104.619C142.155 103.423 150.228 99.9305 152.321 99.2328C154.414 98.5352 163.787 97.1962 165.88 102.899C167.973 108.602 166.491 114.551 162.99 116.727C161.339 117.749 133.484 124.96 133.484 124.96L126.902 114.491C126.902 114.491 116.875 119.461 113.516 118.919C110.158 118.378 84.5566 102.912 84.5566 102.912Z" fill="#263238"/>
<path d="M112.811 97.8894C112.84 97.9549 112.863 98.0231 112.88 98.0931C112.919 98.2491 112.971 98.4441 113.032 98.6781C113.157 99.1894 113.318 99.9391 113.465 100.866C113.803 102.721 114.141 105.308 114.401 108.172C114.661 111.037 114.8 113.637 114.856 115.539C114.886 116.479 114.895 117.242 114.895 117.771C114.895 118.013 114.895 118.204 114.895 118.377C114.907 118.448 114.907 118.52 114.895 118.59C114.881 118.52 114.872 118.449 114.869 118.377C114.869 118.213 114.869 118.013 114.839 117.771C114.808 117.212 114.774 116.471 114.726 115.548C114.631 113.667 114.462 111.071 114.206 108.207C113.95 105.343 113.634 102.769 113.339 100.91C113.196 99.9824 113.058 99.2327 112.958 98.7171C112.915 98.4787 112.876 98.2837 112.845 98.1191C112.821 98.0449 112.81 97.9673 112.811 97.8894Z" fill="#455A64"/>
<path d="M130.837 105.958C130.837 106.019 127.37 106.457 123.076 106.933C118.781 107.41 115.302 107.748 115.276 107.683C115.25 107.618 118.742 107.185 123.037 106.708C127.331 106.231 130.828 105.898 130.837 105.958Z" fill="#455A64"/>
<path d="M128.547 105.98C128.382 105.987 128.216 105.974 128.053 105.941C127.737 105.898 127.282 105.841 126.714 105.785C125.243 105.625 123.762 105.557 122.281 105.581C120.802 105.61 119.326 105.729 117.861 105.937L116.531 106.14C116.369 106.177 116.203 106.198 116.037 106.201C116.189 106.133 116.349 106.085 116.514 106.058C116.821 105.976 117.272 105.88 117.835 105.781C120.776 105.267 123.779 105.214 126.736 105.625C127.299 105.707 127.754 105.785 128.066 105.854C128.231 105.88 128.392 105.922 128.547 105.98Z" fill="#455A64"/>
<path d="M130.666 105.382C129.717 104.916 128.722 104.547 127.698 104.281C126.656 104.09 125.598 104.007 124.539 104.034C124.838 103.93 125.154 103.877 125.471 103.878C127.004 103.79 128.533 104.127 129.886 104.853C130.173 104.987 130.436 105.165 130.666 105.382Z" fill="#455A64"/>
<path d="M117.91 113.949C117.516 114.344 117.035 114.641 116.506 114.816C116.005 115.057 115.454 115.174 114.898 115.158C114.898 115.093 115.596 114.937 116.419 114.603C117.243 114.27 117.871 113.897 117.91 113.949Z" fill="#455A64"/>
<path d="M117.172 115.89C116.455 116.275 115.625 116.394 114.828 116.228C115.21 116.122 115.602 116.06 115.998 116.042C116.383 115.949 116.777 115.898 117.172 115.89Z" fill="#455A64"/>
<path d="M140.717 105C140.654 105.053 140.586 105.1 140.513 105.139L139.911 105.499L137.666 106.799L130.222 110.985L122.742 115.115L120.463 116.345L119.835 116.67C119.763 116.71 119.687 116.743 119.609 116.77C119.672 116.716 119.74 116.67 119.813 116.631L120.42 116.267L122.664 114.967L130.109 110.781L137.588 106.651L139.868 105.425L140.492 105.1C140.561 105.056 140.637 105.022 140.717 105Z" fill="#455A64"/>
<path d="M152.403 102.795C152.311 102.825 152.217 102.848 152.121 102.864L151.315 103.029C150.613 103.176 149.604 103.41 148.373 103.757C145.173 104.688 142.068 105.92 139.1 107.436C135.607 109.169 132.6 111.032 130.398 112.363L127.798 113.949L127.088 114.382C127.006 114.434 126.921 114.479 126.832 114.516C126.904 114.451 126.982 114.393 127.066 114.343L127.751 113.884C128.349 113.489 129.215 112.922 130.299 112.237C132.465 110.868 135.499 109 138.987 107.241C141.966 105.718 145.092 104.501 148.317 103.609C149.56 103.28 150.579 103.072 151.285 102.955C151.636 102.886 151.913 102.855 152.1 102.829C152.199 102.805 152.301 102.794 152.403 102.795Z" fill="#455A64"/>
<path d="M159.263 100.823C159.263 100.862 158.76 100.823 157.963 100.823C156.912 100.854 155.869 101.012 154.856 101.291C153.844 101.574 152.87 101.976 151.953 102.487C151.246 102.886 150.839 103.181 150.817 103.15C150.796 103.12 150.9 103.051 151.077 102.908C151.33 102.706 151.595 102.521 151.87 102.353C152.779 101.788 153.764 101.358 154.795 101.075C155.825 100.789 156.89 100.65 157.959 100.663C158.282 100.666 158.605 100.689 158.925 100.732C159.041 100.746 159.155 100.777 159.263 100.823Z" fill="#455A64"/>
<path d="M156.853 102.656C156.853 102.721 155.692 102.569 154.253 102.621C152.815 102.673 151.697 102.899 151.684 102.834C152.505 102.539 153.372 102.392 154.245 102.4C155.122 102.331 156.006 102.417 156.853 102.656Z" fill="#455A64"/>
<path d="M151.827 100.888C151.858 100.949 150.861 101.478 149.752 102.305C148.642 103.133 147.841 103.93 147.793 103.883C148.293 103.193 148.91 102.598 149.617 102.123C150.277 101.587 151.025 101.169 151.827 100.888Z" fill="#455A64"/>
<path d="M166.487 105.832C166.473 105.864 166.457 105.894 166.44 105.923L166.297 106.179C166.162 106.409 165.963 106.734 165.673 107.137C164.86 108.29 163.876 109.312 162.756 110.17C161.088 111.417 159.286 112.474 157.383 113.321C155.251 114.304 152.82 115.171 150.272 116.064L137.211 120.635L133.242 121.992L132.163 122.351L131.877 122.442C131.845 122.455 131.811 122.462 131.777 122.464L131.868 122.421L132.146 122.308L133.216 121.909L137.159 120.484L150.198 115.851C152.746 114.959 155.173 114.118 157.301 113.13C159.193 112.297 160.991 111.263 162.661 110.045C163.782 109.204 164.779 108.209 165.621 107.089C165.915 106.695 166.132 106.374 166.275 106.157L166.44 105.91C166.472 105.856 166.487 105.83 166.487 105.832Z" fill="#455A64"/>
<path d="M114.014 128.379C113.906 128.348 113.8 128.31 113.697 128.266L112.805 127.907C112.033 127.59 110.92 127.118 109.555 126.516C106.82 125.315 103.055 123.599 98.9812 121.602C94.9079 119.604 91.2376 117.702 88.6505 116.185C87.3505 115.44 86.3279 114.807 85.6172 114.352L84.8155 113.819C84.7195 113.762 84.6295 113.695 84.5469 113.62C84.6493 113.665 84.7478 113.719 84.8415 113.78L85.6605 114.278C86.3755 114.712 87.4155 115.323 88.7199 116.042C91.3199 117.502 94.9859 119.392 99.0722 121.398C103.159 123.404 106.898 125.133 109.611 126.368L112.839 127.846L113.706 128.24C113.813 128.276 113.916 128.322 114.014 128.379Z" fill="#455A64"/>
<path d="M85.6309 105.646C85.7462 105.545 85.8762 105.461 86.0165 105.399C86.3815 105.205 86.7611 105.04 87.1519 104.905C88.4537 104.456 89.8405 104.307 91.2079 104.472C92.5737 104.602 93.9042 104.981 95.1339 105.59C95.5009 105.783 95.8441 106.019 96.1565 106.292C96.2776 106.384 96.3842 106.493 96.4729 106.617C96.0217 106.29 95.5498 105.994 95.0602 105.728C93.8257 105.173 92.508 104.824 91.1602 104.697C89.826 104.534 88.4724 104.652 87.1865 105.044C86.2115 105.36 85.6482 105.685 85.6309 105.646Z" fill="#455A64"/>
<path d="M114.968 120.306C114.892 120.264 114.824 120.212 114.764 120.15L114.209 119.678C113.728 119.244 113.018 118.681 112.134 117.97C110.366 116.553 107.87 114.655 105.118 112.554L103.116 111.015C102.462 110.53 101.816 110.114 101.157 109.715C99.8573 108.948 98.6872 108.294 97.7469 107.648C96.9946 107.153 96.2935 106.584 95.6539 105.949C95.48 105.779 95.3151 105.6 95.1599 105.412C95.0994 105.351 95.047 105.283 95.0039 105.208C95.0039 105.208 95.2509 105.46 95.7146 105.889C96.3719 106.492 97.081 107.035 97.8336 107.514C98.7783 108.138 99.9699 108.775 101.266 109.538C101.911 109.923 102.566 110.339 103.246 110.838C103.926 111.336 104.546 111.852 105.252 112.376C108.004 114.478 110.487 116.393 112.233 117.849C113.1 118.573 113.806 119.175 114.266 119.608C114.504 119.825 114.677 119.998 114.794 120.12C114.858 120.176 114.916 120.238 114.968 120.306Z" fill="#455A64"/>
<path d="M103.539 109.503C104.064 109.666 104.579 109.858 105.082 110.079C106.031 110.448 107.344 110.946 108.821 111.401C110.299 111.856 111.651 112.229 112.635 112.471C113.173 112.588 113.706 112.732 114.229 112.905C114.084 112.911 113.938 112.896 113.796 112.861C113.514 112.822 113.107 112.749 112.609 112.645C111.309 112.373 110.025 112.035 108.761 111.631C107.494 111.232 106.249 110.769 105.03 110.244C104.566 110.04 104.189 109.867 103.933 109.741C103.793 109.677 103.661 109.597 103.539 109.503Z" fill="#455A64"/>
<path d="M108.333 105.663C107.82 105.784 107.301 105.873 106.777 105.932C105.815 106.075 104.485 106.279 103.025 106.539C101.564 106.799 100.247 107.072 99.2935 107.271C98.7832 107.4 98.265 107.496 97.7422 107.557C97.8684 107.493 98.0024 107.445 98.1409 107.414C98.4009 107.336 98.7822 107.232 99.2545 107.115C100.204 106.877 101.517 106.582 102.986 106.318C104.455 106.054 105.785 105.884 106.756 105.772C107.241 105.72 107.622 105.685 107.908 105.668C108.049 105.646 108.192 105.644 108.333 105.663Z" fill="#455A64"/>
<path d="M106.279 103.12C106.279 103.154 105.681 103.206 104.728 103.349C102.232 103.717 99.809 104.469 97.5431 105.577C96.6764 106.01 96.1521 106.3 96.1348 106.266C96.2367 106.168 96.3519 106.085 96.4771 106.019C96.7024 105.867 97.0404 105.668 97.4694 105.434C98.5919 104.836 99.7686 104.345 100.984 103.969C102.198 103.594 103.444 103.333 104.706 103.189C105.191 103.137 105.573 103.111 105.854 103.107C105.996 103.089 106.139 103.093 106.279 103.12Z" fill="#455A64"/>
<path d="M123.69 124.999L121.09 131.066C122.048 131.932 125.688 132.487 126.97 132.422C128.253 132.357 130.108 132.37 131.386 132.227C133.015 132.095 134.652 132.107 136.278 132.262C137.906 132.416 139.546 132.385 141.166 132.171C142.791 131.947 144.306 131.223 145.5 130.099C146.077 129.589 146.513 128.94 146.767 128.213C147.021 127.485 147.084 126.705 146.949 125.947C146.815 125.189 146.488 124.478 145.999 123.882C145.511 123.287 144.878 122.827 144.161 122.546C142.854 121.99 141.422 121.794 140.014 121.979C138.613 122.163 137.232 122.476 135.888 122.915C134.445 123.348 132.968 123.781 131.468 123.651C131.165 123.625 130.862 123.651 130.563 123.582C128.604 123.218 126.563 123.201 124.799 124.31C124.453 124.531 124.058 124.726 123.69 124.999Z" fill="#E0E0E0"/>
<path d="M124.068 125.679C124.138 125.6 124.215 125.527 124.298 125.463C124.531 125.27 124.781 125.097 125.043 124.947C126.021 124.384 127.149 124.141 128.272 124.249C128.974 124.319 129.728 124.461 130.542 124.583C131.4 124.736 132.274 124.778 133.142 124.709C134.096 124.58 135.036 124.364 135.95 124.063C136.946 123.733 137.975 123.515 139.018 123.413C140.069 123.311 141.129 123.402 142.147 123.682C142.63 123.821 143.098 124.01 143.542 124.245C143.974 124.464 144.365 124.757 144.695 125.112C145.304 125.773 145.732 126.581 145.939 127.456C146.04 127.854 146.053 128.27 145.978 128.674C145.896 129.044 145.749 129.398 145.544 129.718C145.202 130.261 144.741 130.72 144.197 131.061C143.792 131.319 143.364 131.538 142.918 131.716C142.554 131.867 142.268 131.967 142.073 132.036C141.976 132.077 141.874 132.106 141.77 132.123C141.861 132.071 141.957 132.028 142.056 131.993C142.247 131.911 142.528 131.798 142.884 131.638C143.316 131.444 143.732 131.217 144.127 130.957C144.647 130.617 145.084 130.166 145.406 129.636C145.604 129.32 145.737 128.968 145.794 128.6C145.851 128.232 145.833 127.856 145.739 127.495C145.53 126.658 145.113 125.887 144.526 125.254C143.845 124.584 142.997 124.11 142.069 123.881C141.082 123.614 140.054 123.526 139.036 123.621C136.921 123.777 135.045 124.743 133.164 124.921C132.28 124.986 131.392 124.936 130.521 124.774C129.706 124.639 128.956 124.488 128.263 124.41C127.168 124.296 126.064 124.51 125.091 125.025C124.739 125.225 124.397 125.443 124.068 125.679Z" fill="#455A64"/>
<path d="M141.786 132.149C141.786 132.149 141.69 132.067 141.552 131.885C141.464 131.778 141.385 131.665 141.313 131.547C141.212 131.394 141.121 131.234 141.04 131.07C140.82 130.647 140.638 130.204 140.499 129.748C140.329 129.183 140.213 128.602 140.152 128.015C140.1 127.431 140.1 126.844 140.152 126.26C140.198 125.785 140.286 125.315 140.416 124.856C140.463 124.678 140.521 124.502 140.59 124.332C140.635 124.201 140.688 124.074 140.75 123.95C140.854 123.747 140.915 123.638 140.928 123.647C140.941 123.656 140.754 124.115 140.572 124.895C140.464 125.349 140.393 125.811 140.36 126.277C140.326 126.848 140.335 127.42 140.386 127.989C140.451 128.557 140.56 129.119 140.711 129.67C140.838 130.116 141.001 130.55 141.196 130.97C141.513 131.746 141.812 132.127 141.786 132.149Z" fill="#263238"/>
<path d="M125.289 124.15C125.346 124.18 125.289 124.405 125.164 124.665C125.038 124.925 124.938 125.133 124.878 125.099C124.817 125.064 124.843 124.839 124.956 124.566C125.068 124.293 125.237 124.119 125.289 124.15Z" fill="#455A64"/>
<path d="M127.14 123.43C127.197 123.456 127.14 123.677 127.067 123.937C126.993 124.197 126.885 124.405 126.824 124.371C126.763 124.336 126.763 124.119 126.85 123.846C126.937 123.573 127.084 123.404 127.14 123.43Z" fill="#455A64"/>
<path d="M129.519 123.383C129.575 123.404 129.545 123.66 129.45 123.955C129.354 124.249 129.224 124.475 129.168 124.453C129.112 124.431 129.138 124.18 129.233 123.885C129.328 123.591 129.458 123.365 129.519 123.383Z" fill="#455A64"/>
<path d="M131.751 123.664C131.811 123.664 131.79 123.937 131.703 124.236C131.616 124.535 131.495 124.765 131.439 124.748C131.382 124.73 131.4 124.475 131.486 124.171C131.573 123.868 131.69 123.647 131.751 123.664Z" fill="#455A64"/>
<path d="M133.632 124.843C133.571 124.843 133.519 124.539 133.524 124.167C133.528 123.794 133.576 123.495 133.641 123.495C133.706 123.495 133.749 123.798 133.749 124.167C133.749 124.535 133.693 124.843 133.632 124.843Z" fill="#455A64"/>
<path d="M135.72 124.31C135.655 124.31 135.569 124.05 135.521 123.712C135.473 123.374 135.486 123.092 135.547 123.084C135.608 123.075 135.699 123.344 135.746 123.682C135.794 124.02 135.79 124.301 135.72 124.31Z" fill="#455A64"/>
<path d="M137.653 122.416C137.714 122.416 137.813 122.659 137.874 122.984C137.935 123.309 137.935 123.582 137.874 123.59C137.813 123.599 137.714 123.348 137.653 123.023C137.592 122.698 137.592 122.425 137.653 122.416Z" fill="#455A64"/>
<path d="M140.147 121.957C140.208 121.957 140.182 122.325 140.095 122.75C140.009 123.175 139.879 123.513 139.818 123.5C139.757 123.487 139.783 123.131 139.874 122.707C139.965 122.282 140.087 121.944 140.147 121.957Z" fill="#455A64"/>
<path d="M142.288 122.017C142.345 122.043 142.193 122.451 141.946 122.884C141.699 123.317 141.456 123.69 141.404 123.66C141.452 123.349 141.569 123.053 141.747 122.793C141.989 122.338 142.219 121.991 142.288 122.017Z" fill="#455A64"/>
<path d="M144.469 122.59C144.521 122.624 144.322 123.023 144.036 123.482C143.75 123.942 143.451 124.288 143.399 124.254C143.347 124.219 143.546 123.82 143.832 123.361C144.118 122.902 144.417 122.555 144.469 122.59Z" fill="#455A64"/>
<path d="M145.874 123.907C145.921 123.942 145.731 124.301 145.44 124.713C145.15 125.125 144.881 125.428 144.834 125.393C144.786 125.359 144.972 124.995 145.267 124.583C145.562 124.171 145.822 123.868 145.874 123.907Z" fill="#455A64"/>
<path d="M146.852 125.58C146.904 125.614 146.709 125.965 146.379 126.329C146.05 126.693 145.721 126.919 145.682 126.875C145.643 126.832 145.894 126.533 146.215 126.178C146.535 125.822 146.8 125.541 146.852 125.58Z" fill="#455A64"/>
<path d="M146.71 128.132C146.757 128.167 146.649 128.379 146.393 128.492C146.138 128.604 145.904 128.544 145.912 128.492C145.921 128.44 146.099 128.383 146.302 128.292C146.506 128.201 146.662 128.089 146.71 128.132Z" fill="#455A64"/>
<path d="M145.323 130.316C145.323 130.372 145.284 130.446 145.189 130.433C145.094 130.42 145.063 130.325 145.102 130.277C145.116 130.256 145.135 130.239 145.157 130.227C145.179 130.215 145.203 130.208 145.228 130.208C145.252 130.216 145.273 130.231 145.29 130.25C145.306 130.269 145.318 130.291 145.323 130.316Z" fill="#455A64"/>
<path d="M130.211 131.178C130.519 130.53 130.756 129.85 130.917 129.15C131.01 128.432 131.024 127.705 130.961 126.984C131.211 127.685 131.274 128.439 131.142 129.172C131.011 129.905 130.69 130.591 130.211 131.161V131.178Z" fill="#263238"/>
<path d="M131.998 130.974C132.283 130.376 132.501 129.749 132.648 129.102C132.724 128.443 132.724 127.777 132.648 127.118C132.909 127.757 132.987 128.457 132.873 129.138C132.759 129.819 132.458 130.455 132.002 130.974H131.998Z" fill="#263238"/>
<path d="M134.246 130.988C135.026 129.746 135.302 128.253 135.017 126.815C135.141 126.999 135.218 127.21 135.243 127.43C135.344 127.954 135.344 128.492 135.243 129.016C135.149 129.541 134.954 130.044 134.666 130.494C134.454 130.836 134.268 131.005 134.246 130.988Z" fill="#263238"/>
<path d="M136.785 130.836C137.045 130.161 137.241 129.463 137.37 128.752C137.421 128.029 137.407 127.304 137.327 126.585C137.595 127.284 137.686 128.038 137.591 128.781C137.497 129.523 137.22 130.231 136.785 130.84V130.836Z" fill="#263238"/>
<path d="M129.757 128.934C129.642 128.984 129.514 129.002 129.389 128.986C129.045 128.964 128.713 128.855 128.423 128.669C128.006 128.388 127.643 128.036 127.348 127.629C127.148 127.4 126.99 127.137 126.88 126.854C126.826 126.69 126.812 126.516 126.841 126.347C126.874 126.164 126.969 125.999 127.11 125.879C127.246 125.769 127.408 125.695 127.58 125.662C127.753 125.63 127.93 125.64 128.098 125.692C128.392 125.789 128.659 125.957 128.873 126.182C129.23 126.541 129.507 126.973 129.684 127.447C129.804 127.762 129.875 128.094 129.896 128.431C129.915 128.554 129.908 128.679 129.874 128.799C129.808 128.355 129.695 127.919 129.536 127.499C129.347 127.058 129.072 126.659 128.726 126.325C128.536 126.126 128.299 125.977 128.037 125.892C127.905 125.852 127.765 125.845 127.629 125.871C127.493 125.896 127.366 125.954 127.257 126.039C127.158 126.131 127.09 126.25 127.06 126.382C127.031 126.513 127.042 126.65 127.092 126.776C127.195 127.037 127.341 127.279 127.526 127.491C127.799 127.887 128.136 128.235 128.522 128.522C128.886 128.774 129.315 128.917 129.757 128.934Z" fill="#263238"/>
<path d="M129.653 128.869C129.645 128.982 129.617 129.094 129.571 129.198C129.474 129.498 129.349 129.788 129.198 130.065C128.979 130.486 128.646 130.838 128.236 131.079C127.985 131.221 127.702 131.299 127.413 131.304C127.245 131.315 127.077 131.284 126.926 131.211C126.774 131.139 126.643 131.029 126.546 130.892C126.47 130.744 126.439 130.576 126.456 130.41C126.473 130.244 126.537 130.086 126.641 129.956C126.809 129.723 127.033 129.536 127.291 129.41C127.716 129.221 128.166 129.093 128.626 129.029C129.035 128.927 129.453 128.865 129.874 128.843C129.48 128.991 129.074 129.106 128.661 129.185C128.221 129.27 127.793 129.408 127.387 129.597C127.162 129.71 126.969 129.877 126.823 130.082C126.746 130.178 126.697 130.294 126.683 130.417C126.668 130.539 126.688 130.664 126.741 130.775C126.817 130.875 126.915 130.955 127.028 131.009C127.141 131.063 127.266 131.088 127.391 131.083C127.644 131.082 127.893 131.018 128.115 130.897C128.498 130.678 128.818 130.363 129.042 129.982C129.436 129.315 129.597 128.847 129.653 128.869Z" fill="#263238"/>
<path d="M129.476 130.715C129.424 130.671 129.675 130.338 129.749 129.848C129.822 129.358 129.701 128.981 129.749 128.947C129.859 129.074 129.935 129.226 129.972 129.39C130.008 129.555 130.003 129.725 129.957 129.887C129.883 130.446 129.51 130.762 129.476 130.715Z" fill="#263238"/>
<path d="M130.442 127.686C130.498 127.686 130.442 128.032 130.256 128.388C130.069 128.743 129.822 128.968 129.774 128.934C129.727 128.899 129.878 128.617 130.056 128.284C130.234 127.95 130.381 127.664 130.442 127.686Z" fill="#263238"/>
<path d="M137.38 124.462C137.083 124.659 136.759 124.812 136.418 124.917C134.798 125.521 133.07 125.781 131.344 125.679C130.988 125.678 130.633 125.627 130.291 125.528C131.493 125.542 132.694 125.48 133.888 125.341C135.07 125.124 136.237 124.831 137.38 124.462Z" fill="#717171"/>
<path d="M136.304 131.486C135.522 131.654 134.725 131.747 133.925 131.763C133.131 131.855 132.33 131.872 131.533 131.815C132.316 131.647 133.112 131.554 133.912 131.538C134.706 131.446 135.507 131.429 136.304 131.486Z" fill="#717171"/>
<path d="M142.056 131.655C142.599 131.578 143.119 131.386 143.581 131.091C144.069 130.758 144.461 130.302 144.717 129.77C145.011 129.112 145.093 128.379 144.951 127.672C144.813 126.961 144.48 126.303 143.989 125.77C143.583 125.339 143.097 124.992 142.559 124.747C142.047 124.54 141.516 124.384 140.973 124.284C141.123 124.256 141.277 124.256 141.428 124.284C141.837 124.332 142.238 124.435 142.619 124.591C143.192 124.824 143.711 125.174 144.14 125.618C144.669 126.173 145.027 126.868 145.172 127.62C145.325 128.374 145.231 129.157 144.903 129.852C144.624 130.411 144.197 130.884 143.668 131.217C143.315 131.44 142.919 131.588 142.507 131.65C142.358 131.68 142.205 131.682 142.056 131.655Z" fill="#717171"/>
<path d="M114.644 121.004L125.91 126.009C126.02 127.441 125.782 128.878 125.217 130.199C124.394 131.889 121.893 131.551 121.893 131.551L111.979 129.246L114.189 127.946L114.644 121.004Z" fill="#FFBE9D"/>
<path d="M124.713 131.087C124.267 130.775 123.86 130.412 123.5 130.004C123.14 129.591 122.937 129.065 122.928 128.517C122.977 128.025 123.143 127.55 123.413 127.135C123.643 126.633 124.04 126.226 124.535 125.982C125.159 125.748 125.835 126.017 126.446 126.316L126.563 128.829L124.713 131.087Z" fill="#E0E0E0"/>
<path d="M125.925 126.008C125.899 126.065 123.355 124.99 120.24 123.608C117.124 122.225 114.606 121.06 114.641 121.008C114.676 120.956 117.215 122.022 120.331 123.404C123.446 124.786 125.951 125.948 125.925 126.008Z" fill="#EB996E"/>
<path d="M138.753 80.5734C138.862 80.5792 138.97 80.5635 139.073 80.5272C139.175 80.4909 139.269 80.4346 139.35 80.3617C139.43 80.2888 139.496 80.2007 139.542 80.1024C139.588 80.0041 139.615 79.8976 139.62 79.7891C139.745 76.2271 137.397 68.1584 136.27 64.8087C135.581 62.7634 133.237 61.2684 131.625 60.1677C129.657 58.8374 122.702 57.208 120.41 56.5754H119.639L108.983 55.7823L103.129 58.586C103.129 58.586 95.0123 61.6627 92.6593 65.9527C90.3063 70.2427 88.5167 82.7791 88.5167 82.7791C88.5167 82.7791 87.4377 86.3628 88.5167 87.9791C89.1883 88.9888 91.6887 89.8641 93.9377 90.2931C92.72 94.3491 93.682 97.3608 93.6387 97.8764C93.5477 98.9425 92.7287 101.425 94.6483 101.274C96.568 101.122 111.579 97.1571 116.038 96.9794C119.813 96.8772 123.546 97.7933 126.845 99.6315C129.094 100.892 129.077 100.983 129.878 98.7648C130.68 96.5461 128.119 94.0458 128.119 94.0458C128.119 94.0458 130.416 85.7474 131.486 80.3221L138.753 80.5734Z" fill="#455A64"/>
<path d="M103.008 75.7547C103.008 75.7547 102.874 75.6377 102.67 75.395C102.467 75.1523 102.146 74.7753 101.804 74.368C100.872 73.2362 99.8581 72.1745 98.7704 71.1917C98.1646 70.6586 97.5153 70.1774 96.829 69.753C96.2686 69.4113 95.6783 69.1212 95.0654 68.8863C94.0124 68.4877 93.332 68.388 93.332 68.3446C93.4968 68.3413 93.6613 68.3587 93.8217 68.3966C94.0135 68.4241 94.2031 68.4646 94.3894 68.518C94.6394 68.5756 94.8855 68.6495 95.126 68.739C95.7594 68.9592 96.3691 69.2423 96.946 69.584C97.6477 70.0052 98.3105 70.4881 98.9264 71.027C100.035 72.0155 101.05 73.1034 101.96 74.277C102.311 74.7103 102.588 75.0917 102.77 75.3517C102.862 75.4784 102.942 75.6133 103.008 75.7547Z" fill="#263238"/>
<path d="M101.053 87.7365C100.881 87.7685 100.705 87.7815 100.529 87.7755C100.191 87.7755 99.7014 87.7971 99.0948 87.7755C97.5185 87.7659 95.9447 87.6486 94.3844 87.4245C92.8237 87.2054 91.2929 86.81 89.8214 86.2458C89.3775 86.0751 88.9435 85.8798 88.5214 85.6608C88.3594 85.5917 88.2066 85.5029 88.0664 85.3965C88.0664 85.3618 88.7511 85.6911 89.8864 86.0985C91.3654 86.6154 92.8905 86.9898 94.4408 87.2165C95.9928 87.4331 97.5548 87.5705 99.1208 87.6281L100.551 87.6845C100.72 87.6836 100.888 87.701 101.053 87.7365Z" fill="#263238"/>
<path d="M123.587 91.801C123.553 91.9168 123.5 92.0265 123.431 92.126C123.269 92.4057 123.091 92.6762 122.898 92.9364C121.62 94.668 119.892 96.0168 117.902 96.8364C117.603 96.9631 117.296 97.0702 116.983 97.1571C116.872 97.1986 116.755 97.2235 116.637 97.2307C116.637 97.1917 117.1 97.0314 117.837 96.6934C118.792 96.2462 119.694 95.6955 120.528 95.0511C121.357 94.3991 122.11 93.6563 122.773 92.8367C123.262 92.2084 123.535 91.7837 123.587 91.801Z" fill="#263238"/>
<path d="M123.759 95.1292C123.558 95.3556 123.319 95.5449 123.052 95.6882C122.442 96.0826 121.788 96.4041 121.102 96.6458C120.417 96.8872 119.706 97.05 118.983 97.1312C118.685 97.1828 118.38 97.1828 118.082 97.1312C119.078 96.9634 120.061 96.7274 121.024 96.4248C121.965 96.0566 122.878 95.6237 123.759 95.1292Z" fill="#263238"/>
<path d="M136.241 64.8087C136.242 64.9333 136.224 65.0574 136.189 65.177C136.122 65.5064 136.036 65.8319 135.934 66.152C135.602 67.2101 135.153 68.2276 134.595 69.1854C134.033 70.1451 133.367 71.0402 132.61 71.8547C132.32 72.1624 132.073 72.4007 131.891 72.5567C131.709 72.7127 131.609 72.7951 131.596 72.7821C131.583 72.7691 131.943 72.3877 132.493 71.7464C133.207 70.9136 133.845 70.0188 134.4 69.0727C134.949 68.1225 135.412 67.1246 135.782 66.0914C136.068 65.307 136.207 64.8 136.241 64.8087Z" fill="#263238"/>
<path d="M138.969 78.6668C138.624 78.7342 138.272 78.7618 137.92 78.7491C137.27 78.7491 136.373 78.7491 135.385 78.7491C134.397 78.7491 133.5 78.6451 132.854 78.5758C132.503 78.5607 132.154 78.5054 131.814 78.4111C132.163 78.3771 132.514 78.3771 132.863 78.4111L135.394 78.5194L137.92 78.6061C138.271 78.5906 138.622 78.611 138.969 78.6668Z" fill="#263238"/>
<path d="M130.52 66.243C130.586 66.4289 130.635 66.6204 130.667 66.815C130.754 67.2484 130.866 67.7554 130.996 68.388C131.265 69.7184 131.651 71.5601 131.863 73.6271C132.064 75.3942 132.056 77.179 131.837 78.9441C131.737 79.6157 131.638 80.1574 131.542 80.5257C131.506 80.7207 131.452 80.9121 131.382 81.0977C131.386 80.8993 131.411 80.7018 131.456 80.5084C131.525 80.1401 131.603 79.5941 131.677 78.9224C131.849 77.168 131.836 75.4003 131.638 73.6487C131.408 71.5991 131.048 69.7487 130.823 68.4184C130.706 67.751 130.615 67.205 130.563 66.8324C130.526 66.6382 130.512 66.4405 130.52 66.243Z" fill="#263238"/>
<path d="M103.009 77.2542C103.017 77.4223 103.007 77.5909 102.979 77.7568C102.944 78.0775 102.888 78.5368 102.814 79.1045C102.662 80.2442 102.433 81.8172 102.116 83.5418C101.86 85.0192 101.519 86.4805 101.094 87.9185C100.962 88.3533 100.806 88.7801 100.626 89.1968C100.563 89.3499 100.483 89.4953 100.387 89.6302C100.353 89.6302 100.656 88.9715 100.942 87.8622C101.228 86.7528 101.579 85.2102 101.895 83.4898C102.212 81.7695 102.463 80.2052 102.658 79.0742C102.748 78.5455 102.826 78.0992 102.892 77.7352C102.912 77.5708 102.951 77.4093 103.009 77.2542Z" fill="#263238"/>
<path d="M101.548 70.3511C101.733 70.6178 101.879 70.9096 101.981 71.2177C102.569 72.6423 102.948 74.144 103.108 75.6768C103.154 75.9928 103.154 76.314 103.108 76.6301C103.038 76.6301 102.904 75.1914 102.462 73.4624C102.02 71.7334 101.487 70.3771 101.548 70.3511Z" fill="#263238"/>
<path d="M113.809 85.7172C113.843 85.6317 113.884 85.5492 113.931 85.4702C114.026 85.2968 114.156 85.0672 114.316 84.7725L115.772 82.1942C117.042 79.9841 118.806 76.9161 120.834 73.3888L120.977 73.5405C119.677 74.1645 118.316 74.7798 116.869 75.3518C115.135 76.0451 113.402 76.6301 111.803 77.0851L111.465 77.1848L111.69 76.9118L117.757 69.5451L119.534 67.4218L120.015 66.8584C120.068 66.7913 120.128 66.729 120.192 66.6721C120.149 66.747 120.1 66.818 120.045 66.8845L119.59 67.4651L117.857 69.6318L111.842 77.0635L111.725 76.8901C113.32 76.4135 115.031 75.8285 116.769 75.1568C118.208 74.5848 119.586 73.9738 120.864 73.3585L121.189 73.2025L121.007 73.5101L115.876 82.2765L114.364 84.8245L113.931 85.5048C113.897 85.5791 113.856 85.6502 113.809 85.7172Z" fill="white"/>
<g opacity="0.3">
<path opacity="0.3" d="M121.584 97.5775C122.096 97.7118 123.075 96.1648 123.643 95.2158C121.909 96.1778 120.237 97.3305 118.295 96.9102C119.374 96.6216 120.366 96.0717 121.182 95.3092C121.998 94.5466 122.614 93.5948 122.975 92.5378C121.62 94.6064 119.618 96.1681 117.281 96.9795C117.281 96.9795 120.774 97.3652 121.584 97.5775Z" fill="black"/>
</g>
<path d="M101.547 51.579C101.547 51.579 101.842 51.7004 102.414 51.8217C103.196 52.0088 104.018 51.9279 104.749 51.592C105.241 51.3503 105.651 50.969 105.928 50.4957C106.089 50.232 106.189 49.9359 106.222 49.6287C106.255 49.3216 106.22 49.0109 106.119 48.719C106.016 48.3947 105.829 48.1034 105.577 47.875C105.325 47.6466 105.017 47.4892 104.684 47.419C104.326 47.3784 103.964 47.4542 103.651 47.6353C103.339 47.8163 103.094 48.093 102.951 48.4244C102.885 48.591 102.855 48.7695 102.862 48.9484C102.868 49.1274 102.912 49.303 102.99 49.4644C103.153 49.7813 103.411 50.04 103.727 50.2054C104.027 50.3766 104.368 50.4648 104.715 50.461C105.049 50.4532 105.378 50.3764 105.681 50.2357C106.25 49.9615 106.746 49.556 107.128 49.0527C107.475 48.6213 107.755 48.1408 107.96 47.627C108.257 46.877 108.404 46.0762 108.394 45.2697C108.394 44.702 108.32 44.403 108.342 44.3813C108.372 44.4532 108.393 44.529 108.402 44.6067C108.443 44.8257 108.469 45.0472 108.48 45.2697C108.52 46.093 108.386 46.9155 108.086 47.6834C107.884 48.2176 107.604 48.7187 107.254 49.1697C106.859 49.7024 106.342 50.132 105.746 50.422C105.418 50.5782 105.061 50.6653 104.697 50.6777C104.312 50.6831 103.933 50.5874 103.597 50.4004C103.24 50.2128 102.951 49.919 102.769 49.5597C102.676 49.3715 102.623 49.1658 102.615 48.9559C102.607 48.7461 102.643 48.5369 102.721 48.342C102.881 47.9643 103.159 47.6487 103.514 47.4431C103.869 47.2375 104.281 47.153 104.689 47.2024C105.058 47.2759 105.401 47.4474 105.682 47.699C105.962 47.9505 106.17 48.2729 106.283 48.6324C106.391 48.9523 106.428 49.2921 106.389 49.6277C106.351 49.9633 106.24 50.2863 106.062 50.5737C105.76 51.0709 105.318 51.4687 104.793 51.7177C104.027 52.0574 103.167 52.1187 102.362 51.891C102.146 51.8365 101.936 51.7625 101.733 51.67C101.668 51.6464 101.606 51.6159 101.547 51.579Z" fill="#263238"/>
<path d="M135.521 42.0154C135.612 41.1346 135.513 40.2446 135.231 39.4052C134.949 38.5658 134.491 37.7965 133.887 37.149C133.272 36.511 132.504 36.0395 131.657 35.7788C130.81 35.5181 129.91 35.4766 129.042 35.6584C127.793 35.8905 126.644 36.4947 125.745 37.3917C125.468 37.6693 125.242 37.9935 125.077 38.3494C125.047 38.4014 125.021 38.4577 124.991 38.514C124.96 38.5704 124.926 38.657 124.895 38.7307V38.7654C124.359 39.9923 124.225 41.3578 124.514 42.6654C124.746 43.6522 125.226 44.5636 125.909 45.3134C126.591 46.0633 127.453 46.6269 128.414 46.9511C129.386 47.2435 130.419 47.264 131.401 47.0104C132.384 46.7567 133.278 46.2386 133.987 45.5124C134.87 44.5478 135.409 43.3183 135.521 42.0154Z" fill="#263238"/>
<path d="M134.745 44.91C134.706 44.91 134.628 44.416 134.312 43.675C133.92 42.7078 133.31 41.8437 132.531 41.1495C131.752 40.4552 130.824 39.9493 129.818 39.671C129.047 39.4544 128.518 39.437 128.544 39.3937C128.662 39.3741 128.782 39.3741 128.899 39.3937C129.222 39.4109 129.543 39.4573 129.857 39.5324C130.906 39.7742 131.878 40.2766 132.683 40.993C133.487 41.7095 134.098 42.6169 134.459 43.6317C134.568 43.9359 134.651 44.2491 134.706 44.5677C134.738 44.6789 134.751 44.7946 134.745 44.91Z" fill="#455A64"/>
<path d="M133.051 41.4867C132.972 41.8442 132.839 42.1876 132.657 42.505C132.252 43.2931 131.732 44.0162 131.114 44.6501C130.491 45.2783 129.777 45.8086 128.995 46.2231C128.682 46.4171 128.342 46.5632 127.985 46.6564C127.942 46.5827 129.528 45.9674 130.954 44.4897C132.379 43.0121 132.982 41.4434 133.051 41.4867Z" fill="#455A64"/>
<path d="M128.375 39.6233C128.31 39.5843 128.83 38.7567 129.241 37.6473C129.473 36.9694 129.625 36.2671 129.696 35.5543C129.772 35.7591 129.799 35.9787 129.774 36.1957C129.752 36.7196 129.643 37.2364 129.454 37.7253C129.218 38.4211 128.852 39.0653 128.375 39.6233Z" fill="#717171"/>
<path d="M128.44 38.1154C128.546 35.6425 127.71 33.2213 126.102 31.3397C124.494 29.4581 122.232 28.256 119.773 27.9754C118.503 27.8338 117.218 27.9497 115.995 28.3161C114.771 28.6824 113.633 29.2917 112.65 30.1076C111.667 30.9235 110.859 31.9292 110.274 33.0646C109.688 34.2 109.338 35.4418 109.243 36.7158L108.376 58.1051C108.361 58.5192 108.484 58.9265 108.727 59.2621C110.076 61.1135 112.1 62.359 114.361 62.7288C116.32 62.9201 118.288 62.4733 119.972 61.4548C120.247 61.2924 120.473 61.0609 120.63 60.7833C120.787 60.5057 120.868 60.1919 120.865 59.8731V55.1065C120.865 55.0984 120.868 55.0907 120.874 55.085C120.88 55.0793 120.887 55.0761 120.895 55.0761C121.343 55.1017 121.791 55.0814 122.234 55.0155C123.495 54.6818 126.698 53.3818 127.69 48.6281C127.98 47.0161 128.262 42.5528 128.44 38.1154Z" fill="#FFBE9D"/>
<path d="M121.547 45.2307C121.999 45.1174 122.463 45.0592 122.929 45.0574C123.146 45.0574 123.362 45.014 123.397 44.871C123.423 44.6532 123.382 44.4327 123.28 44.2384C123.102 43.714 122.912 43.1637 122.717 42.5917C121.937 40.2474 121.382 38.3277 121.477 38.2974C121.573 38.267 122.283 40.1434 123.063 42.4834C123.25 43.064 123.432 43.6144 123.601 44.1387C123.724 44.3997 123.751 44.6964 123.674 44.975C123.639 45.0488 123.588 45.1135 123.524 45.1646C123.46 45.2156 123.386 45.2515 123.306 45.2697C123.185 45.2958 123.061 45.306 122.938 45.3C122.473 45.3342 122.006 45.3109 121.547 45.2307Z" fill="#263238"/>
<path d="M126.381 41.3047C126.371 41.5071 126.283 41.6975 126.135 41.8358C125.987 41.9741 125.791 42.0494 125.588 42.0458C125.489 42.0492 125.389 42.0328 125.296 41.9975C125.203 41.9622 125.118 41.9087 125.046 41.8401C124.974 41.7715 124.916 41.6893 124.876 41.5981C124.836 41.5069 124.814 41.4087 124.812 41.3091C124.82 41.106 124.908 40.9143 125.057 40.7755C125.205 40.6368 125.402 40.5622 125.606 40.5681C125.705 40.5646 125.804 40.581 125.897 40.6163C125.991 40.6516 126.076 40.7051 126.148 40.7737C126.22 40.8423 126.278 40.9246 126.318 41.0158C126.358 41.1069 126.38 41.2052 126.381 41.3047Z" fill="#263238"/>
<path d="M127.161 38.9517C127.083 39.034 126.455 38.995 125.658 39.2637C124.86 39.5324 124.332 39.9527 124.228 39.931C124.124 39.9094 124.228 39.7924 124.475 39.6017C124.811 39.3384 125.191 39.136 125.597 39.0037C125.987 38.865 126.401 38.8031 126.815 38.8217C127.088 38.8434 127.2 38.9084 127.161 38.9517Z" fill="#263238"/>
<path d="M118.252 40.7717C118.242 40.974 118.154 41.1644 118.006 41.3027C117.858 41.441 117.662 41.5163 117.459 41.5127C117.36 41.5156 117.261 41.4988 117.168 41.4632C117.075 41.4277 116.99 41.3742 116.918 41.3057C116.846 41.2372 116.788 41.1552 116.748 41.0643C116.708 40.9734 116.686 40.8754 116.684 40.776C116.693 40.5733 116.781 40.3822 116.929 40.2437C117.077 40.1052 117.274 40.0303 117.477 40.035C117.576 40.0315 117.675 40.0479 117.768 40.0832C117.862 40.1185 117.947 40.1721 118.019 40.2406C118.091 40.3092 118.149 40.3915 118.189 40.4827C118.229 40.5738 118.251 40.6721 118.252 40.7717Z" fill="#263238"/>
<path d="M118.529 39.645C118.404 39.645 117.944 39.151 117.121 38.7783C116.298 38.4056 115.578 38.3103 115.518 38.215C115.457 38.1196 115.635 38.124 115.951 38.1543C116.403 38.2094 116.843 38.3413 117.251 38.5443C117.657 38.729 118.025 38.9893 118.334 39.3113C118.551 39.5106 118.586 39.6406 118.529 39.645Z" fill="#263238"/>
<path d="M120.827 55.0457C120.827 55.0457 117.555 55.141 113.586 52.5237C113.586 52.5237 114.678 56.8267 120.827 56.5754V55.0457Z" fill="#EB996E"/>
<path d="M121.099 47.211C120.945 47.0045 120.742 46.8394 120.509 46.7305C120.275 46.6216 120.018 46.5723 119.76 46.587C119.574 46.5947 119.391 46.6393 119.223 46.7181C119.054 46.7969 118.902 46.9085 118.777 47.0464C118.66 47.1792 118.586 47.3447 118.566 47.5205C118.546 47.6964 118.58 47.8742 118.664 48.03C118.794 48.1869 118.967 48.3022 119.162 48.3615C119.357 48.4208 119.565 48.4216 119.76 48.3637C120.163 48.244 120.538 48.0467 120.865 47.783C120.964 47.7215 121.051 47.6422 121.121 47.549C121.152 47.5035 121.168 47.4499 121.168 47.3952C121.168 47.3404 121.152 47.2869 121.121 47.2414" fill="#EB996E"/>
<path d="M119.037 45.677C119.172 45.677 119.133 46.5783 119.904 47.2587C120.675 47.939 121.637 47.887 121.637 48.0127C121.637 48.069 121.412 48.1773 121 48.1687C120.464 48.1476 119.951 47.9426 119.549 47.588C119.171 47.2544 118.936 46.7894 118.89 46.288C118.86 45.8893 118.972 45.6683 119.037 45.677Z" fill="#263238"/>
<path d="M119.097 36.2911C118.98 36.4991 118.165 36.2521 117.168 36.1957C116.172 36.1394 115.335 36.2694 115.24 36.0441C115.201 35.9401 115.37 35.7537 115.725 35.6107C116.196 35.4151 116.707 35.3334 117.216 35.3724C117.726 35.3992 118.222 35.5478 118.663 35.8057C119.001 35.9791 119.153 36.1914 119.097 36.2911Z" fill="#263238"/>
<path d="M127.144 36.4124C126.988 36.5944 126.416 36.3691 125.718 36.3257C125.02 36.2824 124.418 36.3864 124.292 36.1827C124.236 36.0831 124.34 35.8967 124.604 35.7494C124.965 35.5552 125.374 35.4695 125.782 35.5025C126.19 35.5356 126.58 35.686 126.905 35.9357C127.144 36.1351 127.213 36.3344 127.144 36.4124Z" fill="#263238"/>
<path d="M120.484 26.8789C120.051 26.1379 119.184 25.8129 118.283 25.6873C114.53 25.1933 110.396 27.5246 108.359 30.7139C106.323 33.9033 106.297 38.6223 107.896 42.0456L109.304 42.2666C112.225 42.037 116.991 33.7993 121.004 29.2233C121.502 28.6599 120.883 27.5376 120.484 26.8789Z" fill="#263238"/>
<path d="M127.694 29.2147C126.1 27.4813 123.513 25.3407 120.289 26.6147C119.825 27.5333 120.813 28.699 121.628 29.3707C122.828 30.363 123.872 31.026 124.661 31.7323C126.251 33.1667 128.236 35.55 128.44 38.2324C128.44 38.4014 128.583 38.423 128.752 38.3927C128.921 38.3624 129.449 37.253 129.683 35.7927C130.169 32.69 129.293 30.9653 127.694 29.2147Z" fill="#263238"/>
<path d="M109.535 37.3744C109.362 36.6575 109.023 35.9912 108.547 35.4287C108.235 35.059 107.866 34.7416 107.455 34.4884C106.685 34.0484 105.816 33.8108 104.929 33.7979C104.042 33.785 103.167 33.9972 102.385 34.4147C101.614 34.8462 100.945 35.4376 100.422 36.1491C99.8984 36.8607 99.5335 37.6759 99.3513 38.54C99.0527 39.8165 99.1852 41.1559 99.7283 42.349C100.182 43.2566 100.876 44.0223 101.735 44.5625C102.594 45.1027 103.584 45.3968 104.599 45.4127C105.614 45.4016 106.609 45.132 107.491 44.6293C108.373 44.1266 109.112 43.4074 109.639 42.5397C110.358 41.3177 110.154 39.1597 109.535 37.3744Z" fill="#263238"/>
<path d="M110.202 40.5464C110.115 40.5031 106.631 39.1987 106.479 42.8387C106.327 46.4787 110.015 45.8721 110.024 45.7767C110.032 45.6814 110.202 40.5464 110.202 40.5464Z" fill="#FFBE9D"/>
<path d="M108.971 44.351C108.971 44.351 108.906 44.3944 108.798 44.4377C108.645 44.4985 108.474 44.4985 108.321 44.4377C107.944 44.2774 107.645 43.6534 107.654 42.999C107.657 42.686 107.731 42.3778 107.87 42.0977C107.909 41.9852 107.975 41.8839 108.062 41.8024C108.149 41.7209 108.254 41.6616 108.369 41.6297C108.442 41.6138 108.519 41.6242 108.585 41.6591C108.652 41.6939 108.704 41.751 108.733 41.8204C108.78 41.9244 108.754 41.9937 108.772 42.0024C108.789 42.011 108.854 41.946 108.828 41.7944C108.814 41.7022 108.766 41.6186 108.694 41.5604C108.597 41.4799 108.472 41.441 108.347 41.452C108.197 41.4761 108.055 41.5381 107.935 41.6321C107.815 41.7261 107.721 41.8491 107.662 41.9894C107.495 42.2985 107.406 42.6435 107.402 42.9947C107.402 43.727 107.74 44.429 108.269 44.6067C108.366 44.6391 108.469 44.6493 108.57 44.6365C108.671 44.6238 108.768 44.5884 108.854 44.533C108.962 44.4377 108.984 44.3597 108.971 44.351Z" fill="#EB996E"/>
<path d="M128.445 29.9427C128.1 30.0378 127.742 30.0845 127.384 30.0813C126.523 30.1298 125.66 30.1008 124.805 29.9947C123.953 29.8956 123.11 29.7231 122.288 29.479C121.939 29.396 121.603 29.2647 121.291 29.089C121.643 29.1423 121.991 29.222 122.331 29.3273C123.16 29.5269 123.999 29.6802 124.844 29.7867C125.69 29.8838 126.541 29.9344 127.392 29.9383C127.743 29.9116 128.095 29.9131 128.445 29.9427Z" fill="#455A64"/>
<path d="M129.652 32.5556C129.404 32.6684 129.136 32.7317 128.863 32.742C128.206 32.8142 127.542 32.7791 126.896 32.638C126.251 32.4961 125.634 32.2518 125.067 31.9143C124.821 31.7921 124.603 31.621 124.426 31.4116C125.22 31.8498 126.066 32.1875 126.943 32.417C127.837 32.5711 128.747 32.6176 129.652 32.5556Z" fill="#455A64"/>
<path d="M107.896 31.9706C107.896 31.923 108.685 32.0616 109.955 32.027C110.699 32.0068 111.441 31.9315 112.173 31.8016C113.068 31.6332 113.949 31.4045 114.812 31.117C115.675 30.8197 116.517 30.468 117.335 30.064C117.999 29.7296 118.645 29.3578 119.267 28.9503C120.333 28.257 120.927 27.7326 120.957 27.763C120.836 27.9057 120.701 28.0363 120.554 28.153C120.424 28.2743 120.255 28.413 120.052 28.5863C119.848 28.7596 119.618 28.9243 119.358 29.102C118.74 29.5316 118.094 29.9209 117.426 30.2676C116.605 30.6857 115.757 31.0462 114.886 31.3466C114.012 31.6399 113.117 31.8659 112.208 32.0226C111.465 32.1443 110.713 32.2052 109.959 32.2046C109.67 32.2098 109.38 32.1982 109.092 32.17C108.874 32.1618 108.657 32.1386 108.442 32.1006C108.257 32.0743 108.074 32.0308 107.896 31.9706Z" fill="#455A64"/>
<path d="M120.715 29.0456C120.636 29.2243 120.539 29.3942 120.424 29.5526C120.325 29.713 120.199 29.908 120.039 30.1203C119.878 30.3326 119.709 30.5883 119.484 30.8396C118.986 31.4511 118.439 32.022 117.85 32.547C117.124 33.184 116.342 33.7553 115.515 34.2543C114.678 34.7431 113.797 35.1537 112.884 35.4806C112.14 35.7414 111.374 35.9386 110.596 36.07C110.267 36.1393 109.964 36.161 109.699 36.1913C109.472 36.2229 109.244 36.2402 109.015 36.2433C108.82 36.2593 108.624 36.2593 108.43 36.2433C108.43 36.1956 109.262 36.1783 110.566 35.9183C111.33 35.7653 112.082 35.5553 112.815 35.29C114.613 34.6351 116.273 33.6521 117.712 32.391C118.302 31.8816 118.853 31.3298 119.363 30.74C120.238 29.7173 120.676 29.0153 120.715 29.0456Z" fill="#455A64"/>
<path d="M118.283 25.7003C118.528 25.6524 118.78 25.6703 119.016 25.7523C119.593 25.9172 120.112 26.2434 120.511 26.6927C120.625 26.8271 120.727 26.9722 120.814 27.126C120.89 27.2635 120.951 27.4088 120.996 27.5593C121.084 27.8078 121.152 28.0628 121.2 28.322C121.264 28.5651 121.246 28.8228 121.148 29.0543C121.109 29.0543 121.148 28.7727 121.044 28.3567C120.975 28.1094 120.893 27.8663 120.797 27.6287C120.753 27.4872 120.695 27.3507 120.623 27.2213C120.541 27.0871 120.447 26.9609 120.342 26.8443C119.967 26.424 119.495 26.1012 118.968 25.904C118.561 25.761 118.283 25.7393 118.283 25.7003Z" fill="#455A64"/>
<path d="M108.676 40.2299C108.642 40.2299 108.75 39.8529 108.828 39.2549C108.926 38.4747 108.88 37.6832 108.694 36.9193C108.496 36.1604 108.119 35.4604 107.593 34.8783C107.16 34.4449 106.856 34.2326 106.882 34.1936C106.908 34.1546 106.973 34.2239 107.125 34.3149C107.334 34.4371 107.529 34.5825 107.706 34.7483C108.291 35.3244 108.708 36.0497 108.91 36.8456C109.111 37.6351 109.137 38.459 108.984 39.2593C108.942 39.599 108.838 39.9281 108.676 40.2299Z" fill="#717171"/>
<path d="M108.948 39.4457C108.926 39.476 108.48 39.19 107.713 38.8086C105.713 37.8203 103.504 37.3283 101.273 37.3743C100.407 37.3743 99.8954 37.461 99.8867 37.4263C100.002 37.3767 100.125 37.3459 100.251 37.3353C100.587 37.2745 100.927 37.234 101.269 37.214C103.529 37.0802 105.782 37.5847 107.769 38.67C108.069 38.8303 108.359 39.0098 108.636 39.2073C108.852 39.333 108.956 39.4153 108.948 39.4457Z" fill="#455A64"/>
<path d="M105.634 37.9811C105.596 38.3494 105.504 38.7101 105.361 39.0514C105.059 39.8895 104.65 40.6849 104.143 41.4174C103.634 42.1492 103.031 42.8107 102.349 43.3848C102.081 43.6391 101.775 43.851 101.443 44.0131C102.377 43.1974 103.219 42.2835 103.957 41.2874C104.631 40.248 105.194 39.1396 105.634 37.9811Z" fill="#455A64"/>
<path d="M108.03 45.053C108.056 44.9837 108.186 44.9404 108.403 44.9967C108.716 45.0919 108.986 45.2944 109.165 45.5687C109.406 45.9293 109.499 46.3684 109.426 46.7956C109.352 47.2228 109.118 47.6056 108.771 47.8654C108.48 48.0736 108.133 48.1898 107.776 48.1991C107.418 48.2084 107.066 48.1102 106.764 47.9174C106.498 47.7435 106.281 47.5049 106.132 47.224C105.995 46.9698 105.923 46.6853 105.924 46.3964C105.932 46.1627 105.987 45.933 106.084 45.7204C106.207 45.4075 106.446 45.1544 106.751 45.014C106.981 44.9274 107.12 44.988 107.137 45.0574C107.163 45.2134 106.89 45.4214 106.847 45.9544C106.827 46.0836 106.827 46.2151 106.847 46.3444C106.881 46.4707 106.939 46.5896 107.016 46.6954C107.095 46.8116 107.202 46.9066 107.327 46.9723C107.451 47.038 107.59 47.0724 107.731 47.0724C107.864 47.0745 107.995 47.0391 108.11 46.9701C108.224 46.9011 108.316 46.8014 108.376 46.6824C108.496 46.4527 108.523 46.1857 108.45 45.937C108.32 45.456 107.987 45.2004 108.03 45.053Z" fill="#455A64"/>
<path d="M111.719 39.294C112.461 39.2413 113.196 39.112 113.911 38.9083C115.62 38.3396 117.126 37.2856 118.245 35.875C119.342 34.45 120.165 32.8337 120.671 31.1083C120.879 30.4453 121.022 29.9037 121.105 29.531C121.141 29.3327 121.197 29.1383 121.269 28.9503C121.261 29.1518 121.234 29.3521 121.187 29.5483C121.122 29.9297 121.001 30.48 120.814 31.1517C120.344 32.9181 119.524 34.5726 118.405 36.018C117.262 37.4571 115.708 38.5149 113.95 39.0513C113.419 39.2066 112.87 39.2954 112.317 39.3157C112.172 39.3227 112.028 39.3227 111.883 39.3157C111.775 39.307 111.719 39.3027 111.719 39.294Z" fill="#263238"/>
<path d="M120.705 58.248C120.785 58.2705 120.86 58.3072 120.926 58.3563C121.123 58.4874 121.297 58.6499 121.442 58.8373C121.671 59.1361 121.833 59.4803 121.918 59.847C122.039 60.3341 122.025 60.8447 121.879 61.3247C121.664 61.9384 121.314 62.4958 120.854 62.9557C120.394 63.4155 119.837 63.7659 119.223 63.981C118.514 64.2507 117.775 64.4312 117.022 64.5184C116.218 64.6247 115.405 64.6567 114.595 64.6137C113.015 64.5578 111.48 64.0741 110.153 63.214C109.068 62.5062 108.219 61.4887 107.718 60.2933C107.524 59.8356 107.425 59.3432 107.428 58.846C107.433 58.4671 107.534 58.0958 107.722 57.767C107.841 57.5605 108 57.3806 108.19 57.2383C108.254 57.1876 108.326 57.148 108.403 57.1213C108.153 57.3034 107.948 57.5388 107.8 57.8103C107.633 58.1296 107.548 58.4856 107.553 58.846C107.567 59.3254 107.673 59.7977 107.865 60.237C108.375 61.3873 109.211 62.3624 110.27 63.0407C111.57 63.8668 113.065 64.332 114.604 64.3884C115.401 64.4305 116.2 64.4 116.991 64.2974C117.732 64.2192 118.46 64.0474 119.158 63.786C119.751 63.5895 120.293 63.2625 120.743 62.8291C121.193 62.3956 121.54 61.8667 121.758 61.2814C121.884 60.8818 121.917 60.4588 121.856 60.0444C121.794 59.63 121.639 59.2351 121.403 58.8893C121.207 58.639 120.971 58.4223 120.705 58.248Z" fill="#263238"/>
<path d="M111.172 63.8641C111.105 63.5044 111.181 63.1328 111.384 62.8284C111.662 62.2911 112.082 62.0181 112.117 62.0658C112.151 62.1134 111.835 62.4428 111.584 62.9324C111.332 63.4221 111.237 63.8728 111.172 63.8641Z" fill="#263238"/>
<path d="M115.236 64.6354C115.14 64.3422 115.114 64.0303 115.162 63.7254C115.162 63.2271 115.245 62.8241 115.31 62.8241C115.406 63.1172 115.433 63.4288 115.388 63.7341C115.353 64.2324 115.301 64.6354 115.236 64.6354Z" fill="#263238"/>
<path d="M119.319 64.0331C119.035 63.3997 118.895 62.7118 118.907 62.0181C119.082 62.3195 119.19 62.655 119.223 63.0017C119.327 63.3349 119.36 63.6864 119.319 64.0331Z" fill="#263238"/>
<path d="M121.701 61.433C121.645 61.4633 121.476 61.238 121.194 61.056C120.913 60.874 120.644 60.796 120.648 60.731C120.653 60.666 120.986 60.6443 121.32 60.8653C121.654 61.0863 121.758 61.4113 121.701 61.433Z" fill="#263238"/>
<path d="M109.017 59.8125C109.017 59.8731 108.788 59.9555 108.558 60.1462C108.328 60.3368 108.185 60.5405 108.125 60.5188C108.064 60.4972 108.125 60.1938 108.415 59.9685C108.705 59.7431 109.013 59.7561 109.017 59.8125Z" fill="#263238"/>
<path d="M116.145 88.8111C115.999 88.8039 115.856 88.7615 115.729 88.6874C115.603 88.6133 115.496 88.5097 115.418 88.3854C115.34 88.2611 115.294 88.1199 115.282 87.9737C115.271 87.8275 115.295 87.6807 115.352 87.5457C116.522 84.9111 119.716 79.8411 119.924 79.5117C120.227 79.0524 120.387 78.4847 121.358 78.3677C121.731 78.3244 127.581 78.19 128.954 78.1597C129.065 78.1553 129.176 78.173 129.28 78.2117C129.384 78.2503 129.48 78.3093 129.561 78.385C129.834 78.645 130.12 79.139 129.687 79.9147C129.201 80.7814 125.665 86.2717 124.231 88.3864C124.091 88.5923 123.901 88.7594 123.679 88.8723C123.457 88.9852 123.21 89.0402 122.961 89.0321L116.145 88.8111Z" fill="#263238"/>
<path d="M125.173 80.0491C125.117 79.9832 125.042 79.9356 124.959 79.9124C124.875 79.8892 124.787 79.8916 124.705 79.9191C124.547 79.9708 124.406 80.0618 124.293 80.1835C124.227 80.2377 124.182 80.3134 124.166 80.3974C124.151 80.4814 124.165 80.5683 124.207 80.6428C124.256 80.6965 124.318 80.737 124.387 80.7605C124.455 80.784 124.529 80.7897 124.601 80.7772C124.786 80.7661 124.96 80.6874 125.091 80.5562C125.153 80.4895 125.195 80.4056 125.209 80.3152C125.224 80.2249 125.211 80.1322 125.173 80.0491Z" fill="white"/>
<path d="M128.18 81.2408C128.24 81.0644 128.317 80.8946 128.41 80.7338C128.497 80.5648 128.592 80.3698 128.705 80.1575C128.765 80.0448 128.826 79.9235 128.891 79.7978C128.971 79.683 129.021 79.5507 129.038 79.4121C129.041 79.3416 129.026 79.2715 128.995 79.2081C128.964 79.1447 128.918 79.0897 128.861 79.0481C128.793 79.0053 128.718 78.9763 128.639 78.9629C128.56 78.9495 128.479 78.952 128.401 78.9701L127.205 79.0178L124.471 79.1131L121.732 79.1955H121.429C121.347 79.2024 121.269 79.2325 121.204 79.2821C121.084 79.4148 120.98 79.5601 120.892 79.7155C120.692 80.0275 120.506 80.3221 120.328 80.5821L119.505 81.8431C119.411 81.9986 119.3 82.1438 119.176 82.2765C119.242 82.1028 119.328 81.9372 119.431 81.7825L120.194 80.4825L120.731 79.5898L120.879 79.3471C120.93 79.251 120.997 79.1645 121.078 79.0915C121.171 79.0132 121.286 78.9649 121.407 78.9528H121.728L124.454 78.8791L127.192 78.8011L128.384 78.7751C128.585 78.7418 128.791 78.7868 128.96 78.9008C129.036 78.9613 129.096 79.0388 129.136 79.1269C129.176 79.2149 129.194 79.3112 129.19 79.4078C129.186 79.4977 129.161 79.5853 129.116 79.6635L129.008 79.8585L128.804 80.2095C128.683 80.4175 128.575 80.6038 128.475 80.7685C128.395 80.9365 128.296 81.0949 128.18 81.2408Z" fill="#455A64"/>
<path d="M137.973 80.5821C137.973 80.5821 137.379 84.7074 136.772 87.3594C136.231 89.7211 135.368 97.7031 133.176 98.7085C130.983 99.7138 128.249 99.0855 127.239 97.1398C126.229 95.1941 125.146 90.0158 125.146 90.0158L120.553 88.0831C120.553 88.0831 119.495 84.2308 120.098 83.7974C120.7 83.3641 126.628 84.0141 126.628 84.0141L128.218 83.6544C128.218 83.6544 125.688 83.2904 125.146 83.1474C125.023 83.1297 124.905 83.0872 124.799 83.0225C124.692 82.9578 124.6 82.8722 124.528 82.7709C124.456 82.6696 124.405 82.5548 124.379 82.4333C124.353 82.3118 124.351 82.1862 124.375 82.0641C124.5 81.5571 124.604 81.0501 125.974 81.0501C127.343 81.0501 129.492 80.8464 129.874 80.9808C130.359 81.1454 130.905 81.4141 131.013 82.6404C131.122 83.8668 130.545 86.1071 130.545 86.1071L130.671 86.2978L131.481 80.3264L137.973 80.5821Z" fill="#FFBE9D"/>
<path d="M130.261 87.7062C130.146 87.7766 130.02 87.8264 129.888 87.8535C129.543 87.9694 129.192 88.0649 128.835 88.1395C127.659 88.3955 126.453 88.4874 125.252 88.4125C124.048 88.3353 122.864 88.0767 121.737 87.6455C121.396 87.523 121.063 87.3782 120.741 87.2122C120.617 87.1598 120.502 87.0897 120.398 87.0042C120.398 86.9695 120.927 87.2122 121.794 87.5068C122.915 87.8827 124.08 88.1142 125.26 88.1958C126.441 88.2613 127.624 88.1886 128.788 87.9792C129.706 87.8232 130.252 87.6715 130.261 87.7062Z" fill="#EB996E"/>
<path d="M129.389 86.0508C129.272 86.1083 129.146 86.1478 129.017 86.1678C128.774 86.2285 128.419 86.3065 127.977 86.3801C126.817 86.5745 125.637 86.6182 124.467 86.5101C123.291 86.3978 122.148 86.0656 121.095 85.5308C120.779 85.3681 120.476 85.1797 120.19 84.9675C119.99 84.8158 119.886 84.7204 119.895 84.7074C119.904 84.6944 120.363 85.0108 121.165 85.3878C122.217 85.8683 123.341 86.1714 124.493 86.2848C125.647 86.3903 126.81 86.3685 127.959 86.2198C128.839 86.1158 129.385 86.0161 129.389 86.0508Z" fill="#EB996E"/>
<path d="M130.823 81.7911C130.849 81.7911 130.931 81.9948 130.91 82.3458C130.903 82.5601 130.845 82.7697 130.741 82.9568C130.668 83.0709 130.566 83.1636 130.446 83.2255C130.33 83.2911 130.209 83.3448 130.082 83.3858C129.653 83.5188 129.209 83.5946 128.76 83.6111C128.581 83.6365 128.4 83.651 128.219 83.6545C128.219 83.6241 128.401 83.5158 128.739 83.4551C129.169 83.3895 129.595 83.2954 130.013 83.1735C130.225 83.1189 130.418 83.0047 130.567 82.8441C130.663 82.6862 130.726 82.5109 130.754 82.3285C130.765 82.148 130.788 81.9686 130.823 81.7911Z" fill="#EB996E"/>
<path d="M128.64 88.7332C128.696 88.8501 128.725 88.9782 128.725 89.108C128.725 89.2377 128.696 89.3658 128.64 89.4828C128.55 89.7524 128.39 89.9933 128.177 90.1805C127.914 90.4083 127.593 90.5583 127.249 90.6138C126.912 90.6722 126.566 90.6574 126.235 90.5705C125.973 90.4959 125.72 90.3927 125.481 90.2628C125.254 90.1642 125.039 90.0407 124.84 89.8945C125.087 89.9212 125.327 89.9963 125.546 90.1155C126.06 90.3729 126.64 90.4695 127.21 90.3928C127.514 90.3445 127.8 90.2192 128.042 90.0288C128.231 89.8672 128.379 89.6639 128.476 89.4352C128.563 89.2099 128.618 88.9737 128.64 88.7332Z" fill="#EB996E"/>
<path d="M130.55 81.375C130.55 81.375 130.581 81.375 130.633 81.4227C130.706 81.4828 130.768 81.5563 130.815 81.6393C130.977 81.9487 131.066 82.2912 131.075 82.6403C131.1 83.8222 130.954 85.0016 130.641 86.1417V86.081C130.864 86.6728 131.138 87.2441 131.46 87.7884C131.906 88.5444 132.404 89.2684 132.951 89.955C133.449 90.4925 133.885 91.0841 134.251 91.7187C134.478 92.1747 134.523 92.6998 134.377 93.1877C134.333 93.3178 134.267 93.4394 134.182 93.5474C134.125 93.6167 134.086 93.647 134.082 93.6427C134.166 93.4889 134.235 93.3279 134.29 93.1617C134.397 92.6969 134.333 92.2089 134.108 91.788C133.732 91.1786 133.297 90.6082 132.808 90.085C132.245 89.4025 131.735 88.6782 131.283 87.9184C130.956 87.3663 130.679 86.7862 130.455 86.185V86.1503V86.12C130.764 84.997 130.93 83.8395 130.949 82.675C130.951 82.3424 130.888 82.0125 130.763 81.7043C130.699 81.5904 130.628 81.4804 130.55 81.375Z" fill="#EB996E"/>
<path d="M89.9992 89.0841C89.9992 89.0841 89.3275 98.2967 93.6132 99.8394C99.5195 101.971 106.254 96.0867 106.28 95.9914C106.306 95.8961 113.447 90.1457 113.447 90.1457L111.224 84.0227C111.224 84.0227 110.331 84.0227 108.888 85.054C108.364 85.4267 100.087 89.7904 100.087 89.7904C100.087 89.7904 96.4732 89.7601 89.9992 89.0841Z" fill="#FFBE9D"/>
<path d="M100.386 89.6519C100.416 89.7212 98.856 90.3539 96.971 91.1989C96.0307 91.6322 95.203 92.0655 94.6093 92.3775C94.2998 92.5733 93.9752 92.7443 93.6387 92.8889C93.9056 92.6349 94.2042 92.4164 94.527 92.2389C95.2839 91.7743 96.0698 91.3589 96.88 90.9952C97.8247 90.5619 98.7 90.2239 99.337 89.9899C99.6749 89.8437 100.026 89.7305 100.386 89.6519Z" fill="#EB996E"/>
<path d="M119.14 80.6861C119.14 80.6861 118.022 79.1044 117.58 79.1088C117.138 79.1131 114.473 79.5421 114.473 79.5421L110.707 83.6458C110.707 83.6458 110.447 84.9761 111.262 85.4571C111.262 85.4571 110.989 87.5501 111.994 88.1525C111.994 88.1525 112.744 90.1198 113.446 90.1588C113.743 90.1854 114.042 90.1854 114.339 90.1588C114.339 90.1588 114.187 91.3418 115.257 91.4155C116.319 91.3995 117.377 91.2936 118.421 91.0991C118.575 91.0733 118.723 91.017 118.855 90.9337C118.987 90.8504 119.102 90.7417 119.192 90.6138L120.111 89.3138C120.256 89.1125 120.334 88.8707 120.334 88.6226C120.334 88.3746 120.256 88.1328 120.111 87.9315C120.352 87.6453 120.54 87.318 120.665 86.9651C120.726 86.5557 120.726 86.1396 120.665 85.7301C120.665 85.7301 122.256 84.3825 122.295 84.0315C122.334 83.6805 122.256 83.3425 121.554 83.3815C121.554 83.3815 121.406 82.2938 120.518 82.3198C119.63 82.3458 115.422 82.3198 115.422 82.3198L116.224 81.5398C116.224 81.5398 118.317 82.3371 118.538 81.8084L119.14 80.6861Z" fill="#FFBE9D"/>
<path d="M113.102 85.4008C113.328 85.3678 113.557 85.3519 113.786 85.3532C114.22 85.3272 114.861 85.2882 115.65 85.1972C116.578 85.087 117.5 84.9235 118.41 84.7075C118.926 84.5818 119.463 84.4345 120.018 84.2742C120.569 84.0622 121.066 83.7307 121.474 83.3035L121.5 83.2818H121.53C121.736 83.2321 121.953 83.2535 122.145 83.3425C122.249 83.4078 122.325 83.5076 122.362 83.6242C122.391 83.7269 122.405 83.8337 122.401 83.9405C122.407 83.988 122.407 84.036 122.401 84.0835C122.39 84.1408 122.368 84.1953 122.336 84.2438C122.287 84.3196 122.234 84.392 122.176 84.4605C122.067 84.5905 121.946 84.7118 121.829 84.8332C121.591 85.0715 121.352 85.2925 121.11 85.5048C120.278 86.1679 119.41 86.7842 118.51 87.3509C117.774 87.7942 116.958 88.0887 116.109 88.2175C115.547 88.3027 114.975 88.288 114.419 88.1742C114.271 88.1437 114.127 88.1016 113.986 88.0485C113.935 88.0352 113.886 88.0132 113.843 87.9835C114.578 88.1715 115.344 88.2025 116.092 88.0745C116.915 87.9336 117.704 87.6396 118.419 87.2079C119.238 86.7182 120.065 86.0378 120.98 85.3488C121.218 85.1365 121.456 84.9155 121.686 84.6815C121.803 84.5645 121.916 84.4475 122.02 84.3218C122.124 84.1962 122.119 84.1962 122.163 84.1355C122.206 84.0748 122.197 84.0662 122.197 84.0618C122.202 84.0244 122.202 83.9866 122.197 83.9492C122.197 83.7672 122.167 83.6068 122.05 83.5462C121.905 83.4855 121.743 83.4734 121.591 83.5115L121.651 83.4855C121.423 83.6991 121.182 83.8974 120.928 84.0792C120.683 84.2747 120.404 84.4217 120.104 84.5125C119.545 84.6858 118.999 84.8288 118.475 84.9458C117.557 85.1516 116.626 85.2964 115.689 85.3792C114.891 85.4572 114.25 85.4702 113.808 85.4702C113.587 85.4702 113.418 85.4702 113.301 85.4702C113.231 85.4571 113.164 85.4337 113.102 85.4008Z" fill="#EB996E"/>
<path d="M120.662 85.7214C120.729 85.9343 120.76 86.157 120.753 86.3801C120.753 86.4841 120.753 86.6011 120.753 86.7311C120.753 86.7961 120.753 86.8611 120.753 86.9304C120.746 87.0092 120.724 87.0858 120.688 87.1558C120.625 87.3047 120.553 87.4495 120.471 87.5891L120.341 87.8058L120.272 87.9141C120.259 87.9381 120.244 87.9613 120.228 87.9834L120.198 88.0094C120.176 88.0094 120.198 88.0398 120.094 88.0094C120.074 87.997 120.06 87.978 120.053 87.9558C120.046 87.9337 120.046 87.9097 120.055 87.8881C120.054 87.881 120.054 87.8736 120.055 87.8664L120.077 87.8361L120.25 87.9401C119.967 88.4553 119.592 88.9148 119.145 89.2964C118.392 89.9452 117.45 90.3341 116.458 90.4058C116.169 90.4272 115.879 90.4185 115.592 90.3798C115.483 90.3727 115.376 90.3478 115.275 90.3061C115.275 90.2628 115.735 90.3408 116.463 90.2498C117.407 90.132 118.295 89.7403 119.019 89.1231C119.446 88.7522 119.808 88.3128 120.09 87.8231L120.267 87.9271C120.54 87.2241 120.673 86.4752 120.662 85.7214Z" fill="#EB996E"/>
<path d="M116.319 81.5658C116.319 81.6178 115.886 81.4575 115.674 80.9548C115.599 80.7476 115.587 80.5231 115.639 80.3091C115.682 80.1488 115.743 80.0621 115.769 80.0708C115.795 80.0795 115.734 80.4738 115.886 80.8768C116.038 81.2798 116.363 81.5095 116.319 81.5658Z" fill="#EB996E"/>
<path d="M114.436 90.1848C114.333 90.2392 114.218 90.2661 114.102 90.2628C113.786 90.286 113.469 90.2262 113.183 90.0894C112.749 89.8842 112.408 89.524 112.226 89.0798C112.122 88.8208 112.069 88.5442 112.07 88.2651C112.07 88.209 112.057 88.1535 112.032 88.1032C112.008 88.0528 111.971 88.0089 111.927 87.9748C111.695 87.822 111.504 87.6143 111.372 87.3701C111.24 87.1259 111.17 86.8528 111.168 86.5751C111.15 86.2323 111.163 85.8885 111.207 85.5481L111.255 85.6434C111.026 85.4968 110.838 85.2932 110.71 85.0525C110.583 84.8118 110.52 84.5421 110.527 84.2698C110.514 84.0651 110.574 83.8624 110.696 83.6978C110.667 83.8857 110.649 84.0753 110.644 84.2654C110.654 84.5098 110.725 84.7479 110.848 84.9587C110.972 85.1696 111.146 85.3467 111.355 85.4744L111.407 85.5048V85.5654C111.378 85.8956 111.378 86.2276 111.407 86.5578C111.429 86.9118 111.559 87.2506 111.78 87.5284C111.873 87.6313 111.977 87.7229 112.092 87.8014C112.157 87.8538 112.211 87.9195 112.249 87.9942C112.287 88.069 112.309 88.151 112.313 88.2348C112.307 88.4917 112.349 88.7475 112.438 88.9888C112.595 89.3935 112.892 89.7286 113.275 89.9334C113.636 90.1076 114.034 90.1937 114.436 90.1848Z" fill="#EB996E"/>
<g opacity="0.3">
<path opacity="0.3" d="M102.924 77.8001C102.417 82.3978 101.702 85.9078 100.623 89.0668C102.138 87.7841 103.138 85.9975 103.44 84.0358C103.726 82.0988 103.271 79.7458 102.924 77.8001Z" fill="black"/>
</g>
<g opacity="0.3">
<path opacity="0.3" d="M132.446 75.2739C132.276 73.6427 131.867 72.0453 131.232 70.5332C131.913 73.7833 131.991 77.1307 131.462 80.4089L131.618 80.0579C132.326 78.5688 132.612 76.9142 132.446 75.2739Z" fill="black"/>
</g>
</svg>
