<svg width="16" height="16" viewBox="0 0 16 16" fill="none" xmlns="http://www.w3.org/2000/svg">
<path fill-rule="evenodd" clip-rule="evenodd" d="M8 10C9.10457 10 10 9.10457 10 8C10 6.89543 9.10457 6 8 6C6.89543 6 6 6.89543 6 8C6 9.10457 6.89543 10 8 10Z" stroke="white" stroke-opacity="0.6" stroke-linecap="round" stroke-linejoin="round"/>
<path fill-rule="evenodd" clip-rule="evenodd" d="M12.9332 10C12.7516 10.4114 12.8387 10.8919 13.1532 11.2133L13.1932 11.2533C13.4435 11.5034 13.5842 11.8428 13.5842 12.1967C13.5842 12.5505 13.4435 12.8899 13.1932 13.14C12.9431 13.3904 12.6037 13.531 12.2498 13.531C11.896 13.531 11.5566 13.3904 11.3065 13.14L11.2665 13.1C10.945 12.7856 10.4646 12.6984 10.0532 12.88C9.65019 13.0527 9.38825 13.4482 9.3865 13.8867V14C9.3865 14.7364 8.78955 15.3333 8.05317 15.3333C7.31679 15.3333 6.71984 14.7364 6.71984 14V13.94C6.70927 13.4884 6.42375 13.0892 5.99984 12.9333C5.58844 12.7518 5.10796 12.8389 4.7865 13.1533L4.7465 13.1933C4.49641 13.4437 4.15705 13.5844 3.80317 13.5844C3.44929 13.5844 3.10993 13.4437 2.85984 13.1933C2.60947 12.9432 2.46879 12.6039 2.46879 12.25C2.46879 11.8961 2.60947 11.5568 2.85984 11.3067L2.89984 11.2667C3.21428 10.9452 3.3014 10.4647 3.11984 10.0533C2.94712 9.65035 2.5516 9.38841 2.11317 9.38666H1.99984C1.26346 9.38666 0.666504 8.78971 0.666504 8.05333C0.666504 7.31695 1.26346 6.72 1.99984 6.72H2.05984C2.51139 6.70943 2.91059 6.42391 3.0665 6C3.24807 5.5886 3.16095 5.10812 2.8465 4.78666L2.8065 4.74666C2.55613 4.49657 2.41545 4.15721 2.41545 3.80333C2.41545 3.44945 2.55613 3.11009 2.8065 2.86C3.05659 2.60963 3.39596 2.46895 3.74984 2.46895C4.10372 2.46895 4.44308 2.60963 4.69317 2.86L4.73317 2.9C5.05463 3.21444 5.53511 3.30156 5.9465 3.12H5.99984C6.40282 2.94729 6.66475 2.55176 6.6665 2.11333V2C6.6665 1.26362 7.26346 0.666664 7.99984 0.666664C8.73622 0.666664 9.33317 1.26362 9.33317 2V2.06C9.33492 2.49843 9.59686 2.89395 9.99984 3.06666C10.4112 3.24823 10.8917 3.16111 11.2132 2.84666L11.2532 2.80666C11.5033 2.55629 11.8426 2.41562 12.1965 2.41562C12.5504 2.41562 12.8897 2.55629 13.1398 2.80666C13.3902 3.05676 13.5309 3.39612 13.5309 3.75C13.5309 4.10388 13.3902 4.44324 13.1398 4.69333L13.0998 4.73333C12.7854 5.05479 12.6983 5.53527 12.8798 5.94666V6C13.0525 6.40298 13.4481 6.66492 13.8865 6.66666H13.9998C14.7362 6.66666 15.3332 7.26362 15.3332 8C15.3332 8.73638 14.7362 9.33333 13.9998 9.33333H13.9398C13.5014 9.33508 13.1059 9.59702 12.9332 10Z" stroke="white" stroke-opacity="0.6" stroke-linecap="round" stroke-linejoin="round"/>
</svg>
